<svg xmlns="http://www.w3.org/2000/svg" viewBox="0 0 1366 769.28">
    <defs>
        <style>
            .cls-2 {
                fill: #1841a8;
            }
            .cls-3 {
                fill: #ffef75;
            }
            .cls-4 {
                fill: #ea2458;
            }
            .cls-5 {
                fill: #20afba;
            }
        </style>
        <pattern
            id="dad_jokes_1"
            data-name="dad_jokes_1"
            width="121"
            height="191.2"
            patternUnits="userSpaceOnUse"
        >
            <path fill="none" d="M0 0h121v191.2H0z" />
            <circle class="cls-2" cx="112.46" cy="147" r="9" />
            <circle class="cls-3" cx="86.46" cy="169" r="22" />
            <circle class="cls-2" cx="-8.54" cy="147" r="9" />
            <circle class="cls-4" cx="18.46" cy="191" r="14" />
            <circle class="cls-2" cx="51.96" cy="51.4" r="9" />
            <circle class="cls-5" cx="29.96" cy="118.4" r="4" />
            <circle class="cls-3" cx="25.96" cy="73.4" r="22" />
            <circle class="cls-4" cx="78.96" cy="95.4" r="14" />
            <circle class="cls-5" cx="90.46" cy="22.8" r="4" />
            <circle class="cls-4" cx="18.46" cy="-.2" r="14" />
        </pattern>
    </defs>
    <g style="isolation:isolate">
        <g id="Layer_2" data-name="Layer 2">
            <g id="dad_jokes_2">
                <path
                    d="M0 768V0h1366v516c-182.94 123.71-501.74 268.41-683 252-95.67-8.66-254-117-366-117S0 768 0 768z"
                    opacity=".33"
                    fill="url(#dad_jokes_1)"
                />
                <path
                    d="M0 768V0h1366v516c-182.94 123.71-501.74 268.41-683 252-95.67-8.66-254-117-366-117S0 768 0 768z"
                    style="mix-blend-mode:color-dodge"
                    fill="#ffef75"
                />
            </g>
        </g>
    </g>
</svg>
