<svg xmlns="http://www.w3.org/2000/svg" xmlns:xlink="http://www.w3.org/1999/xlink" viewBox="0 0 1366 768"><defs><style>.cls-1{fill:none;}.cls-2{fill:#fdf4b3;}.cls-3{fill:url(#distorted_smiley);}</style><pattern id="distorted_smiley" data-name="distorted_smiley" width="170" height="165" patternUnits="userSpaceOnUse" viewBox="0 0 170 165"><rect class="cls-1" width="170" height="165"/><polygon class="cls-2" points="146.94 164.47 146.94 169.82 140.57 170.84 140.57 163.46 146.94 164.47 146.94 164.47"/><polygon class="cls-2" points="178.23 134.07 178.23 152.5 156.31 155.99 156.31 130.58 178.23 134.07 178.23 134.07"/><polyline class="cls-2" points="191.66 153.74 191.66 190.22 169.74 204.17 147.82 193.14"/><polygon class="cls-2" points="8.23 134.07 8.23 152.5 -13.69 155.99 -13.69 130.58 8.23 134.07 8.23 134.07"/><polyline class="cls-2" points="21.66 153.74 21.66 190.22 -0.26 204.17 -22.18 193.14"/><polygon class="cls-2" points="61.94 81.97 61.94 87.33 55.58 88.34 55.58 80.96 61.94 81.97 61.94 81.97"/><polygon class="cls-2" points="93.23 51.57 93.23 70 71.31 73.49 71.31 48.08 93.23 51.57 93.23 51.57"/><polyline class="cls-2" points="106.66 71.24 106.66 107.72 84.74 121.67 62.82 110.64"/><path class="cls-2" d="M106.84,88.89"/><path class="cls-2" d="M84.92,110.81"/><polygon class="cls-2" points="146.94 -0.53 146.94 4.83 140.57 5.84 140.57 -1.54 146.94 -0.53 146.94 -0.53"/><polyline class="cls-2" points="191.66 -11.26 191.66 25.21 169.74 39.17 147.82 28.14"/><path class="cls-2" d="M169.92,28.31"/><polyline class="cls-2" points="21.66 -11.26 21.66 25.21 -0.26 39.17 -22.18 28.14"/><path class="cls-2" d="M21.84,6.39"/></pattern></defs><title>distorted_smiley</title><g id="Layer_2" data-name="Layer 2"><g id="dad_jokes_1"><rect id="distorted_smiley-3" data-name="distorted_smiley" class="cls-3" width="1366" height="768"/></g></g></svg>