<svg xmlns="http://www.w3.org/2000/svg" viewBox="0 0 71.14 71.14"><defs><style>.cls-1{fill:#272b77;}</style></defs><title>external_link</title><g id="Layer_2" data-name="Layer 2"><g id="icons"><path id="external_link" class="cls-1" d="M71.14,13.34V57.8A13.35,13.35,0,0,1,57.8,71.14H13.34a12.84,12.84,0,0,1-9.43-3.91A12.84,12.84,0,0,1,0,57.8V13.34A12.84,12.84,0,0,1,3.91,3.91,12.84,12.84,0,0,1,13.34,0H57.8a12.84,12.84,0,0,1,9.43,3.91A12.84,12.84,0,0,1,71.14,13.34ZM59.29,37.05V14.82a3,3,0,0,0-3-3H34.09a2.76,2.76,0,0,0-2.73,1.8A2.67,2.67,0,0,0,32,16.91l6.66,6.67L13.94,48.31a2.91,2.91,0,0,0,0,4.17l4.73,4.72a2.9,2.9,0,0,0,4.16,0L47.57,32.47l6.67,6.67a2.76,2.76,0,0,0,2.08.88,3.32,3.32,0,0,0,1.16-.23A2.79,2.79,0,0,0,59.29,37.05Z"/></g></g></svg>