<svg xmlns="http://www.w3.org/2000/svg" viewBox="0 0 72.63 72.63"><defs><style>.cls-1{fill:#272b77;}</style></defs><title>github</title><g id="Layer_2" data-name="Layer 2"><g id="icons"><path id="github" class="cls-1" d="M19.62,46.85c.1-.11.05-.27-.17-.49a.64.64,0,0,0-.48.17c-.11.1,0,.21.32.32S19.62,47.07,19.62,46.85ZM20.26,48q.33.33.57.09c.16-.17.14-.36-.08-.57s-.41-.25-.57-.08S20.05,47.77,20.26,48Zm1.62,1.63c.22-.11.22-.33,0-.65s-.43-.38-.64-.17-.22.3,0,.57S21.67,49.71,21.88,49.61Zm1.46,1.45c.11-.1,0-.32-.24-.64s-.51-.38-.73-.17a.81.81,0,0,0,.16.81Q23,51.39,23.34,51.06Zm1.46.33c-.32-.11-.54,0-.65.24s.06.46.49.57.54,0,.65-.24S25.24,51.5,24.8,51.39Zm2.76.81c0-.32-.22-.49-.65-.49s-.65.17-.65.49.22.32.65.32S27.56,52.42,27.56,52.2Zm1.94-.32c0-.33-.21-.44-.64-.33s-.46.14-.41.41.27.37.65.32S29.61,52.09,29.5,51.88ZM44.9,62.25A25.62,25.62,0,0,0,58,52.44a27.11,27.11,0,0,0,4.95-16A24.72,24.72,0,0,0,55,17.91a26.55,26.55,0,0,0-19-7.53,25.45,25.45,0,0,0-18.73,7.53A25.26,25.26,0,0,0,9.73,36.47a26.83,26.83,0,0,0,5,16,26.11,26.11,0,0,0,13.13,9.81c1.3.22,1.95-.22,1.95-1.3,0-.1,0-1-.08-2.75s-.08-3-.08-3.89a3.11,3.11,0,0,1-.81.24,14.69,14.69,0,0,1-1.87.08,12.15,12.15,0,0,1-2.51-.24,6.13,6.13,0,0,1-2.27-1.06,4.34,4.34,0,0,1-1.62-2.27Q19.45,48,17.67,47.17L16.54,46c0-.33.43-.49,1.29-.49a4.86,4.86,0,0,1,4.05,2.76q2.76,4.69,8,2.27A5.49,5.49,0,0,1,31.45,47a35.07,35.07,0,0,1-4.54-.73,15.06,15.06,0,0,1-3.65-1.54,6.45,6.45,0,0,1-2.92-3.56,17.7,17.7,0,0,1-.89-6,8.94,8.94,0,0,1,2.6-6.32,9,9,0,0,1,.16-7.3,4.42,4.42,0,0,1,2.84.41,26.55,26.55,0,0,1,3.32,1.54l1.3.81a28.32,28.32,0,0,1,13.45,0c.43-.22,1-.52,1.54-.9a20.45,20.45,0,0,1,2.92-1.37,4.77,4.77,0,0,1,3-.49,9.55,9.55,0,0,1,.32,7.3,9,9,0,0,1,2.76,6.32,16.43,16.43,0,0,1-1,6,6.71,6.71,0,0,1-3.08,3.56,16.52,16.52,0,0,1-3.73,1.54,35.37,35.37,0,0,1-4.54.73c1.19,1,1.78,2.6,1.78,4.87V61C43.12,62,43.72,62.47,44.9,62.25ZM64.84,0a7.53,7.53,0,0,1,5.52,2.27,7.5,7.5,0,0,1,2.26,5.51V64.84a7.72,7.72,0,0,1-7.78,7.78H7.78a7.5,7.5,0,0,1-5.51-2.26A7.53,7.53,0,0,1,0,64.84V7.78A7.51,7.51,0,0,1,2.27,2.27,7.51,7.51,0,0,1,7.78,0Z"/></g></g></svg>