<svg xmlns="http://www.w3.org/2000/svg" viewBox="0 0 579 492.34"><defs><style>.cls-1{fill:#3e3e57;}.cls-2{fill:#f2f2f2;}.cls-3{fill:#f8ce6d;}.cls-4{opacity:0.1;}.cls-4,.cls-8{isolation:isolate;}.cls-5{fill:none;stroke:#3e3e57;stroke-miterlimit:10;stroke-width:4px;}.cls-6{fill:#57b793;}.cls-7{fill:#656380;}.cls-8{opacity:0.2;}.cls-9{fill:#ffc0c6;}.cls-10{fill:#575687;}.cls-11{fill:#3c354c;}.cls-12{fill:#ffef75;}</style></defs><title>joke_search</title><g id="Layer_2" data-name="Layer 2"><g id="joke_search"><ellipse id="Ellipse_45" data-name="Ellipse 45" class="cls-1" cx="193.27" cy="455.72" rx="187.85" ry="36.62"/><path id="Path_198" data-name="Path 198" class="cls-1" d="M42.9,446.91s-34.83-9.37-41.4-8.68,10-32.12,21-28.12,25.68,14.53,34.07-.33,13.1-22.87,23.31-22.07,24.38-6.4,34.59,0,17.39,14.28,31.49,13.94,27.48-32.34,38.47-19.54,24.16,24.52,34.49,20.26,22.12,2.14,31.55,9.34,25.94,4,32.23-1.6,11-9.6,24.37-8.81,55.82,10.4,71.55,22.38-20.44,27.21-37.74,27.21-20.44,4.8-35.38,12-39.33-4-56.61,8-39.33-6.4-69.17,0-23.58,15.2-40.88,8.82-11-8.82-36.17-10.4-52.67,4-55-6.4-18.07-12.8-27.51-16S42.9,446.91,42.9,446.91Z"/><path id="Path_199" data-name="Path 199" class="cls-2" d="M476.73,360.59l1.35-.87.4-.26a13.25,13.25,0,0,1-1.35-25.83l-.07,5.46,3-5.95h0a13.27,13.27,0,0,1,13.87,12.64h0v.75a15.71,15.71,0,0,0,2.62-3.87c1.27-2.84,1.3-6,1.2-10-.2-7.73-.54-15.52-1-23.3A13.24,13.24,0,0,1,485,296.86q0-.6,0-1.2v-.3a7.23,7.23,0,0,1,.12-1.14.6.6,0,0,1,0-.19,7.45,7.45,0,0,1,.19-.94,1.13,1.13,0,0,1,.09-.35c.09-.34.2-.67.31-1l.13-.31c.1-.25.2-.49.31-.72s.11-.25.17-.38l0-.09h0a13.29,13.29,0,0,1,15.6-6.73l-.08,7.12,3-5.88A13.16,13.16,0,0,1,511.17,299h0a1.43,1.43,0,0,1-.07.28c0,.09-.09.35-.14.52l-.2.68c-.07.23-.11.32-.17.48s-.2.46-.3.68-.11.27-.17.4c-.17.34-.36.68-.55,1-.07.12-.15.22-.22.33l-.44.68a2.79,2.79,0,0,1-.3.38c-.1.12-.29.37-.45.54a4.51,4.51,0,0,1-.34.37c-.11.12-.32.34-.5.5l-.34.32-.6.5-.32.25c-.31.23-.63.45-1,.68l-.19.1a8,8,0,0,1-.86.47l-.38.17c-.24.11-.49.22-.74.31l-.43.15a6.34,6.34,0,0,1-.74.23l-.45.12c-.27.07-.55.12-.82.17h-.06c.18,3.28.35,6.56.49,9.84a13.25,13.25,0,0,1,17.71-6.12c.24.11.47.23.7.36L517,319.85l4.82-4.63a13.22,13.22,0,0,1,4.28,9.15,12.89,12.89,0,0,1-.34,3.66,13.25,13.25,0,0,1-24.41,3.61v1c.09,3.45.2,7.73-1.52,11.53a23.43,23.43,0,0,1-4.88,6.59c-1.21,1.23-2.46,2.42-3.73,3.57a13.31,13.31,0,0,1-4.8,4q-3.15,2.43-6.52,4.55l-1.17.86c-1.26.78-2.56,1.58-3.83,2.42l.68-.06a13.26,13.26,0,0,1,13.05,8.64l-8.28,6.78,9.12-2.12a13.28,13.28,0,0,1-19,11.95c.21.25.41.51.62.77l1.2,1.5c5.43,6.84,6.9,13.32,4.23,18.27l-3.25-1.76c2.6-4.82-1.31-11-3.87-14.24-.39-.5-.79-1-1.19-1.49-3.44-4.28-7.35-9.13-7.25-15.09C461,370.32,469.73,364.92,476.73,360.59Z"/><path id="Path_200" data-name="Path 200" class="cls-2" d="M411.18,351.55l-2.08-1.3-.6-.38a19.86,19.86,0,0,0,2-38.7l.1,8.18-4.5-8.9h-.06a19.87,19.87,0,0,0-20.75,18.92v1.13a23.54,23.54,0,0,1-3.93-5.8c-1.91-4.25-1.94-9.05-1.79-14.92.3-11.58.8-23.25,1.45-34.88a19.85,19.85,0,0,0,17.63-18.8v-2.25c0-.57-.09-1.14-.18-1.71a.5.5,0,0,0-.05-.27c-.08-.48-.18-1-.3-1.42,0-.17-.08-.34-.13-.52-.14-.51-.29-1-.47-1.5-.06-.16-.12-.32-.19-.48-.14-.36-.29-.72-.46-1.07-.08-.19-.16-.37-.25-.56a.61.61,0,0,1-.07-.14h0a19.85,19.85,0,0,0-23.32-10.06l.13,10.65L369,238a19.75,19.75,0,0,0-9.49,21.4h0a1.91,1.91,0,0,0,.11.41c.06.27.13.52.2.78s.2.68.31,1,.16.49.26.73.28.68.44,1c.09.2.17.41.27.6.25.51.52,1,.82,1.5.1.17.21.34.32.5.21.34.44.66.68,1s.3.38.45.57.44.54.68.81l.5.55q.36.39.75.75l.52.48c.29.26.6.51.91.75l.47.37c.47.35,1,.68,1.45,1,.09.06.2.11.29.16a14.34,14.34,0,0,0,1.28.68l.58.26c.36.16.72.32,1.09.45s.44.16.68.24.74.24,1.11.34l.68.17c.41.1.83.18,1.24.25h.08q-.42,7.37-.73,14.73a19.86,19.86,0,0,0-26.54-9.15c-.35.17-.69.35-1,.54l3.52,9.62-7.23-6.93a19.74,19.74,0,0,0-6.41,13.71,19.35,19.35,0,0,0,.5,5.47,19.85,19.85,0,0,0,36.52,5.43c0,.5,0,1-.05,1.5-.13,5.16-.3,11.57,2.27,17.3a34.8,34.8,0,0,0,7.32,9.86q2.72,2.78,5.59,5.35a19.86,19.86,0,0,0,7.16,6q4.75,3.63,9.78,6.79l2.1,1.3c1.89,1.17,3.83,2.38,5.73,3.62-.33,0-.68-.06-1-.08a19.86,19.86,0,0,0-19.55,12.94l12.4,10.1-13.66-3.16a19.9,19.9,0,0,0,28.49,17.89c-.32.38-.62.76-.93,1.14-.61.76-1.22,1.51-1.81,2.26-8.07,10.23-10.32,19.94-6.32,27.34l4.87-2.62c-3.9-7.21,2-16.43,5.8-21.29.57-.74,1.17-1.48,1.77-2.22,5.16-6.41,11-13.68,10.85-22.59C434.71,366.13,421.67,358.07,411.18,351.55Z"/><path id="Path_201" data-name="Path 201" class="cls-1" d="M310.58,454.07s-23.47-6.22-27.89-5.76,6.7-21.25,14.12-18.61,17.3,9.62,22.95-.22,8.82-15.14,15.71-14.61,16.42-4.24,23.3,0,11.72,9.45,21.22,9.23,18.51-21.41,25.92-12.94,16.28,16.23,23.24,13.41,14.92,1.42,21.26,6.19,17.47,2.65,21.7-1.06,7.42-6.35,16.42-5.83,37.6,6.89,48.2,14.84-13.77,18-25.42,18-13.78,3.18-23.84,8S461,462,449.34,470s-26.48-4.24-46.61,0-15.89,10.06-27.55,5.82-7.41-5.82-24.36-6.88-35.49,2.65-37.08-4.24-12.21-8.47-18.53-10.59S310.58,454.07,310.58,454.07Z"/><path id="Path_202" data-name="Path 202" class="cls-3" d="M505,380.84l-9.09,27.85-.39,1.21-15.22,46.63-26,17.6L327.78,421l12-48.46.64-2.55L346.81,344l0-.06,38.92-4.87Z"/><path id="Path_203" data-name="Path 203" class="cls-4" d="M505,380.84l-24.7,75.7-26,17.6,23.9-82.61L346.81,344l0-.06,38.92-4.87Z"/><path id="Path_204" data-name="Path 204" class="cls-4" d="M375.19,349.2l-2.1-1.28,21-2.2,90,31.82-2.54,1.33-88.79-31.31Z"/><path id="Path_205" data-name="Path 205" class="cls-4" d="M495.88,408.69l-26.29,12.36L340.39,370l-.63,2.55,129.31,50.37,26.42-13"/><ellipse id="Ellipse_46" data-name="Ellipse 46" class="cls-1" cx="351.34" cy="360.86" rx="4.52" ry="4.88" transform="translate(-97.58 589.19) rotate(-72.72)"/><ellipse id="Ellipse_47" data-name="Ellipse 47" class="cls-1" cx="465.21" cy="404.95" rx="4.52" ry="4.88" transform="translate(-59.62 728.91) rotate(-72.72)"/><ellipse id="Ellipse_48" data-name="Ellipse 48" class="cls-1" cx="447.21" cy="459.71" rx="4.52" ry="4.88" transform="translate(-124.56 750.23) rotate(-72.72)"/><ellipse id="Ellipse_49" data-name="Ellipse 49" class="cls-1" cx="337.41" cy="413.76" rx="4.52" ry="4.88" transform="translate(-157.89 613.08) rotate(-72.72)"/><path id="Path_206" data-name="Path 206" class="cls-1" d="M362.21,346.8c-.27.88-2.44,0-5.21-.87s-4.92-1.82-4.65-2.72,2.87-1.35,5.64-.5S362.49,345.91,362.21,346.8Z"/><ellipse id="Ellipse_50" data-name="Ellipse 50" class="cls-1" cx="371.6" cy="342.21" rx="1.67" ry="4.76" transform="translate(-65.52 595.42) rotate(-72.72)"/><path id="Path_207" data-name="Path 207" class="cls-1" d="M420.78,368.24c-.27.88-3,.07-5.63-.75s-4.69-1.74-4.42-2.62,2.77-1.36,5.42-.56S421.06,367.34,420.78,368.24Z"/><path id="Path_208" data-name="Path 208" class="cls-1" d="M477,388.44c-.31,1-3.19.13-6-.74s-5-1.86-4.67-2.85,3-1.6,5.79-.73S477.35,387.45,477,388.44Z"/><path id="Path_209" data-name="Path 209" class="cls-1" d="M493.49,386.07c-.31,1-3.19.13-6-.74s-5-1.87-4.68-2.86,3-1.59,5.79-.72S493.8,385.08,493.49,386.07Z"/><path id="Path_210" data-name="Path 210" class="cls-1" d="M501.6,381.23c-.31,1-2.71.29-5-.43s-4.07-1.59-3.79-2.58,2.59-1.72,4.9-1S501.91,380.24,501.6,381.23Z"/><path id="Path_211" data-name="Path 211" class="cls-1" d="M447.27,361.42c-.24.78-2.71.06-5-.68s-4.23-1.57-4-2.35,2.49-1.25,4.86-.51S447.51,360.62,447.27,361.42Z"/><ellipse id="Ellipse_51" data-name="Ellipse 51" class="cls-1" cx="390.55" cy="341.61" rx="1.67" ry="4.11" transform="translate(-51.63 613.1) rotate(-72.72)"/><path id="Path_212" data-name="Path 212" class="cls-4" d="M419,394.86a4.3,4.3,0,0,0-2-5,4.12,4.12,0,0,0,.89-1.58,21.32,21.32,0,0,1-7.22-10.56,11.16,11.16,0,0,1-9.25.93,4.26,4.26,0,0,0-2.73,2.8,1.76,1.76,0,0,1-.07.27l-.15.08a4.29,4.29,0,0,0-5.74,6.37,4.51,4.51,0,0,0,1.59.91,3.29,3.29,0,0,0,.68.14l.06,1.58,20.52,8.39-.14-1.36a4.3,4.3,0,0,0,3.53-3Z"/><path id="Path_213" data-name="Path 213" class="cls-4" d="M414.24,408.33a4.31,4.31,0,0,1-4.89,2.23,4.13,4.13,0,0,1-.45,1.75,4.28,4.28,0,0,1-5.75,1.9h0a4.39,4.39,0,0,1-1.58-1.35,4.29,4.29,0,0,1-8-2.78,4.13,4.13,0,0,1-1.36-.42,4.28,4.28,0,0,1-1.9-5.75l.13-.25-.05-.16a4.08,4.08,0,0,1-1.78-.45,4.3,4.3,0,0,1,3.89-7.68,4.88,4.88,0,0,1,.58.34l1.12-1.09,20.65,8.25-1,.89A4.28,4.28,0,0,1,414.24,408.33Z"/><path id="Path_214" data-name="Path 214" class="cls-4" d="M401.64,385.63l-5,16.15a4.85,4.85,0,0,0,2.93,6h0a4.86,4.86,0,0,0,6.24-2.86,1.83,1.83,0,0,0,.08-.25l5-16.16a4.85,4.85,0,0,0-3.23-6l-.22-.06h0A4.83,4.83,0,0,0,401.64,385.63Z"/><path id="Path_215" data-name="Path 215" class="cls-1" d="M401.85,386.61l-4.52,14.48a4.34,4.34,0,0,0,2.64,5.37h0a4.34,4.34,0,0,0,5.58-2.57,1.43,1.43,0,0,0,.08-.22l4.5-14.49a4.36,4.36,0,0,0-2.87-5.45l-.22-.06h0A4.37,4.37,0,0,0,401.85,386.61Z"/><path id="Path_216" data-name="Path 216" class="cls-1" d="M342.88,461.48s-23.47-6.21-27.89-5.75,6.71-21.26,14.12-18.61,17.31,9.61,22.95-.23,8.82-15.13,15.72-14.6,16.42-4.24,23.3,0,11.71,9.44,21.22,9.22,18.5-21.41,25.92-12.93S454.5,434.81,461.46,432s14.92,1.42,21.25,6.19,17.48,2.64,21.7-1.06,7.41-6.36,16.42-5.83,37.6,6.89,48.2,14.83-13.77,18-25.43,18-13.76,3.17-23.83,7.94-26.49-2.64-38.14,5.3-26.48-4.23-46.61,0-15.88,10.07-27.54,5.83-7.41-5.83-24.36-6.89S347.63,479,346,472.08s-12.17-8.47-18.53-10.6S342.88,461.48,342.88,461.48Z"/><path id="Path_217" data-name="Path 217" class="cls-5" d="M542.11,443.63c2-3.74-.27-8.32-2.9-11.65s-5.85-6.78-5.78-11.05c.1-6.1,6.58-9.7,11.75-12.94a56.76,56.76,0,0,0,10.55-8.49,15.38,15.38,0,0,0,3.25-4.34c1.07-2.39,1-5.1,1-7.71q-.33-13.06-1.3-26.1"/><path id="Path_218" data-name="Path 218" class="cls-6" d="M568.5,360.87a9.51,9.51,0,0,0-4.75-7.8l-2.13,4.22.07-5.11a10.09,10.09,0,0,0-3.14-.38,9.5,9.5,0,1,0,10,9.07Z"/><path id="Path_219" data-name="Path 219" class="cls-6" d="M551.52,425.29a9.5,9.5,0,1,1,.46-7.66l-6,4.86,6.55-1.51a9.5,9.5,0,0,1-1.06,4.31Z"/><path id="Path_220" data-name="Path 220" class="cls-6" d="M546.82,406.81a9.49,9.49,0,0,1-3-18.67l0,3.92,2.15-4.26h0a9.49,9.49,0,0,1,10,9v.07a9.14,9.14,0,0,1-.41,3.24,9.49,9.49,0,0,1-8.65,6.71Z"/><path id="Path_221" data-name="Path 221" class="cls-6" d="M569.93,391.44a9.5,9.5,0,1,1,4.21-17.82l-1.68,4.62,3.45-3.33a9.5,9.5,0,0,1,3.08,6.57,9.66,9.66,0,0,1-.24,2.63,9.5,9.5,0,0,1-8.82,7.33Z"/><path id="Path_222" data-name="Path 222" class="cls-4" d="M567.21,363.41c-2.2.24-4.33.92-6.53,1.06s-4.63-.39-6-2.1a28.72,28.72,0,0,1-1.76-3.1,6.75,6.75,0,0,0-2.4-2.26,9.49,9.49,0,0,0,17.13,8.19,8.85,8.85,0,0,0,.66-1.87C567.94,363.34,567.58,363.37,567.21,363.41Z"/><path id="Path_223" data-name="Path 223" class="cls-4" d="M569.93,391.44a9.53,9.53,0,0,1-9.06-13.56,7,7,0,0,1,1.93,1.89,32.26,32.26,0,0,0,1.89,3.14c1.48,1.75,4,2.32,6.31,2.22s4.51-.76,6.78-1c.32,0,.68-.05,1-.06a9.48,9.48,0,0,1-8.81,7.34Z"/><path id="Path_224" data-name="Path 224" class="cls-4" d="M546.82,406.81a9.48,9.48,0,0,1-9.11-13.4,7.77,7.77,0,0,1,2,1.93,36.54,36.54,0,0,0,2,3.22c1.6,1.78,4.3,2.41,6.74,2.36s4.62-.63,7-.82a9.48,9.48,0,0,1-8.66,6.71Z"/><path id="Path_225" data-name="Path 225" class="cls-4" d="M551.52,425.29a9.5,9.5,0,1,1-17.34-7.76,9.44,9.44,0,0,1,2.08,1.86,38.48,38.48,0,0,0,2.55,3.39c2,1.91,5.09,2.72,7.89,2.78a41.16,41.16,0,0,0,4.83-.27Z"/><path id="Path_226" data-name="Path 226" class="cls-7" d="M527.75,439.32s7.52-.23,9.78-1.84,11.53-3.54,12.12-1,11.28,12.88,2.81,12.93-19.71-1.32-22-2.72S527.75,439.32,527.75,439.32Z"/><path id="Path_227" data-name="Path 227" class="cls-8" d="M552.62,448.56c-8.48.07-19.7-1.36-22-2.71-1.73-1.05-2.41-4.81-2.64-6.55h-.25s.47,6.07,2.71,7.46,13.48,2.76,22,2.72c2.44,0,3.29-.89,3.24-2.18C555.34,448.06,554.43,448.54,552.62,448.56Z"/><path id="Path_228" data-name="Path 228" class="cls-1" d="M139.16,121.51a3,3,0,0,1,.21-1.45c.55-1,2-.71,3.07-.44,4.37,1.1,9,.1,13.46.36s9.55,2.5,10.46,6.91a32.76,32.76,0,0,0,8.29-8.52c1.25-1.87,2.33-4,2.16-6.24-.24-3.23-2.95-5.64-5.46-7.69l-7.46-6.1a11.3,11.3,0,0,0-3.35-2.13c-1.72-.59-3.6-.31-5.42-.31-5.43,0-11.24-2.47-16.08,0a17.11,17.11,0,0,0-5,4.55l-6.67,7.9a4.18,4.18,0,0,0-1.07,1.81,7.85,7.85,0,0,0,.48,2.88c.32,1.76-.45,3.64.14,5.34,1,2.81,4.38,3.21,6.47,4.82.78.6,2,2.64,2.92,2.62C138,125.8,139.11,122.81,139.16,121.51Z"/><path id="Path_229" data-name="Path 229" class="cls-9" d="M140.26,140.38c-.07,2.2-1.36,4.15-2.59,6-1.65,2.43-3.39,5-6,6.31a57.61,57.61,0,0,0,42.58,4.49c2.28-.68,5-2.09,4.85-4.47a24.42,24.42,0,0,1-7.83-3.14,17,17,0,0,1-5.74-8.14,89.69,89.69,0,0,1-2.59-9.78,1.91,1.91,0,0,0-.42-.91,1.86,1.86,0,0,0-1.29-.34l-9-.16c-3.71,0-7.74-.09-11.19,1.48C136.73,133.66,140.38,136.73,140.26,140.38Z"/><path id="Path_230" data-name="Path 230" class="cls-4" d="M140.26,140.38c-.07,2.2-1.36,4.15-2.59,6-1.65,2.43-3.39,5-6,6.31a57.61,57.61,0,0,0,42.58,4.49c2.28-.68,5-2.09,4.85-4.47a24.42,24.42,0,0,1-7.83-3.14,17,17,0,0,1-5.74-8.14,89.69,89.69,0,0,1-2.59-9.78,1.91,1.91,0,0,0-.42-.91,1.86,1.86,0,0,0-1.29-.34l-9-.16c-3.71,0-7.74-.09-11.19,1.48C136.73,133.66,140.38,136.73,140.26,140.38Z"/><path id="Path_231" data-name="Path 231" class="cls-10" d="M132.4,449.78c-2.22,3.39-5.13,6.26-7.57,9.49s-4.49,7-4.51,11.06a1.7,1.7,0,0,0,.47,1.42,1.76,1.76,0,0,0,.92.29l9.43,1.21a15.77,15.77,0,0,0,4.34.15,15.34,15.34,0,0,0,4.45-1.62,6.16,6.16,0,0,0,2.67-2c.46-.75.58-1.67,1-2.43,1.31-2.3,4.6-2.2,7.22-1.8.76-7-1.18-14-3.1-20.73A2.11,2.11,0,0,0,146,443c-2.25-.74-7.71-3.64-9.61-2.28C135,441.7,133.53,448,132.4,449.78Z"/><path id="Path_232" data-name="Path 232" class="cls-10" d="M177.85,463.57c1.81-.85,3.74-1.94,5.7-1.5,2.75.62,4,3.88,6.32,5.43A11.31,11.31,0,0,0,194.8,469a114.73,114.73,0,0,0,15.94.94c1.7,0,3.84-.41,4.26-2s-1.16-2.93-2.55-3.77a72.35,72.35,0,0,0-9.41-4.89,19,19,0,0,1-4.49-2.39c-2.32-1.88-3.46-4.82-4.5-7.62-.83-2.25-1.6-7.12-3.31-8.82-1.87-1.84-4.39-.62-6.73-.1-3.65.8-7.92,1.36-10.27,4.63C170.31,449.73,167.67,468.28,177.85,463.57Z"/><path id="Path_233" data-name="Path 233" class="cls-11" d="M123.93,247.16a69.26,69.26,0,0,0-5.06,24.1A139.17,139.17,0,0,0,120,289.74q1.62,14.92,3.23,29.84a84.84,84.84,0,0,0,2,12.28c1.17,4.51,3.08,8.82,4.44,13.26,4.22,13.82,3,28.72.23,42.9a21.73,21.73,0,0,0-.58,4.75c.08,2.39,1,4.67,1.6,7,3.65,14.14-4.75,29.84.73,43.4a2.12,2.12,0,0,0,.86,1.19,2.16,2.16,0,0,0,1.71-.08,23.11,23.11,0,0,0,4.47-2.11,27.31,27.31,0,0,0,11.08,8c3.21-.79,3.82-4.7,4.87-7.84a53.76,53.76,0,0,0,2-6.83,52.71,52.71,0,0,0,.71-8.6L160.07,329l-.2,29.87a35.73,35.73,0,0,0,.46,7.23c.41,2,1.15,3.89,1.58,5.88a40.22,40.22,0,0,1,.5,8.7,255.59,255.59,0,0,0,4.71,51.41c1.09,5.55,2.39,11.15,5.16,16.07a1.82,1.82,0,0,0,1,1c.59.13,1.14-.34,1.58-.75a17.28,17.28,0,0,1,19.85-2.16c-.6-2.88,2.15-6.22.19-8.4a21.29,21.29,0,0,0-2-1.49c-1.25-1.06-1.54-2.85-1.72-4.48a104,104,0,0,1,0-21.89c.95-9.09,3.1-18.26,1.52-27.26-1.16-6.53-4.26-12.89-3.64-19.46.4-4.4,2.45-8.47,3.86-12.66,6.16-18.36,0-38.8,4.46-57.65,1-4.32,2.57-9,.71-13l2.83-.86L195,265.66c-1.24-2.85-2.55-5.79-4.74-8-3.69-3.66-9.2-4.65-14.35-5.42l-41.87-6.53C130.34,245.11,125.33,243.72,123.93,247.16Z"/><circle id="Ellipse_52" data-name="Ellipse 52" class="cls-9" cx="150.29" cy="122.36" r="17.92"/><path id="Path_234" data-name="Path 234" class="cls-12" d="M140.52,143.7a4.23,4.23,0,0,0-2.89-.51,5.27,5.27,0,0,0-1.36.74l-8.47,5.94a13.06,13.06,0,0,0-3.21,2.81c-1.45,2-1.68,4.6-1.49,7,.42,5.51,2.64,10.7,3.85,16.08s1.21,11.53-2.27,15.85a8.54,8.54,0,0,0-1.47,2.1,5.8,5.8,0,0,0-.28,2,55.4,55.4,0,0,0,.16,7.73c.38,3.32,1.36,6.54,1.89,9.83.92,5.6.67,11.34,1.4,16.95a2.71,2.71,0,0,0,2.47,2.94h.24a80,80,0,0,0,12.66.83c4.9,0,9.8-.27,14.7-.53l22.28-1.17a2.2,2.2,0,0,0,2.46-1.91,2.17,2.17,0,0,0,0-.36c1.95-9.38,3.92-18.92,3-28.44-.6-6.15-2.39-12.11-4.07-18-1.36-4.82-2.66-9.87-1.64-14.77.68-3.24,2.32-6.23,2.75-9.49a11.2,11.2,0,0,0-3.06-9.43c-2.5-2.39-6.14-3.3-8.63-5.7a19.68,19.68,0,0,0-2.22-2.16,2.8,2.8,0,0,0-2.93-.34A3.7,3.7,0,0,0,163.3,143c-2.17,3.3-5.42,8.72-10,7.87C148.34,149.94,144.88,145.8,140.52,143.7Z"/><path id="Path_235" data-name="Path 235" class="cls-9" d="M185.3,264.87c-1.58,1.19-2.76,3.3-2,5.14a10.46,10.46,0,0,0,6.35-.88c1.26-.62,2.84-1.49,3.94-.59a3.34,3.34,0,0,1,.81,1.22,41.4,41.4,0,0,0,4.3,7.14,7.25,7.25,0,0,0,3.2-2.31,6.68,6.68,0,0,0,.83-2.48c.43-2.18.74-4.39,1-6.6.14-1.61.17-3.39-.93-4.58C198,255.84,189.22,262,185.3,264.87Z"/><path id="Path_236" data-name="Path 236" class="cls-1" d="M138,114.79a3.11,3.11,0,0,1,.21-1.45c.55-1,2-.68,3.07-.44,4.37,1.11,9,.11,13.46.37s9.55,2.5,10.46,6.91a33,33,0,0,0,8.3-8.53c1.24-1.86,2.33-4,2.16-6.24-.24-3.22-2.95-5.64-5.46-7.69l-7.46-6.1a11.2,11.2,0,0,0-3.35-2.12c-1.72-.59-3.61-.31-5.42-.31-5.43,0-11.24-2.47-16.08,0a17.22,17.22,0,0,0-5,4.56l-6.66,7.9a4.18,4.18,0,0,0-1.07,1.8,7.89,7.89,0,0,0,.48,2.88c.31,1.76-.45,3.65.13,5.34,1,2.82,4.39,3.21,6.48,4.82.78.6,2,2.64,2.92,2.61C136.84,119.08,138,116.09,138,114.79Z"/><path id="Path_237" data-name="Path 237" class="cls-12" d="M182.31,151.14a13.89,13.89,0,0,1,11,2c5.13,3.52,7.24,9.93,9,15.89l4,13.35c1.75,5.85,3.52,11.76,3.92,17.85.38,5.55-.38,11.09-1.14,16.59-1.05,7.62,1.42,16,1.45,23.65,0,8.82-.05,18.17-4.54,25.77a4.32,4.32,0,0,0-2.71-2.9,12.88,12.88,0,0,0-4-.68l-11.93-.76a37.07,37.07,0,0,0,2.61-5.38c4.58-11.76,2.83-24.9,1-37.38a26.47,26.47,0,0,0-.67-3.53,33.5,33.5,0,0,1-.81-13.66,32.45,32.45,0,0,0,.21-6.23,7,7,0,0,0-.55-2.55,8.05,8.05,0,0,0-1.32-1.82l-2.41-2.71c-.2-8.2-1.48-16.47-2.76-24.58A55,55,0,0,1,182.31,151.14Z"/><path id="Path_238" data-name="Path 238" class="cls-10" d="M158.85,187.37a57.6,57.6,0,0,1-21.59-36.57c-.39-2.57-1.42-5.93-4-5.84a5.1,5.1,0,0,0-2.21.78l-9.42,5a3.57,3.57,0,0,0-1.64,1.36c-.62,1.2.26,2.6,1,3.72,5.07,7.66,5.43,17.39,5.63,26.58.06,2.71.08,5.56-1.23,7.94-1.06,1.92-2.91,3.33-3.89,5.3a13.94,13.94,0,0,0-1,6.06c-.19,14.76-.38,29.53.39,44.28.12,2.22.29,4.55,1.48,6.44a13.49,13.49,0,0,0,4.69,3.93L141.36,265c2.71,1.65,5.53,3.32,8.67,3.85s6.73-.37,8.53-3c.88-1.28,1.26-2.83,2.1-4.12s2.45-2.35,3.88-1.77a4.35,4.35,0,0,1,2,2.45,18.48,18.48,0,0,0,3.35,5.28,6.51,6.51,0,0,0,5.67,2c1.77-.39,3.14-1.72,4.41-3,3.92-3.93,7.88-7.91,10.76-12.66a3,3,0,0,0,.61-1.92,3.75,3.75,0,0,0-1.05-1.76c-1.8-2.21-2.51-5.11-3-7.92-5.36-28.21,2.21-57.53-2-86-.47-3.25-1.52-6.24-4-8.45a32.62,32.62,0,0,0-8.47-5,4.05,4.05,0,0,0-3.11-.5c-1.66.67-1.67,3-1.55,4.74a62.49,62.49,0,0,1-.54,10.94l-1.46,13.42a25.88,25.88,0,0,1-1.14,6A24.16,24.16,0,0,1,158.85,187.37Z"/><path id="Path_239" data-name="Path 239" class="cls-1" d="M75.71,80.75S70.53,85,64.42,73.93,28.81,36.4,28.81,36.4,25,32.91,39.49,27.09,73.81,0,73.81,0s33.05,29.38,36.29,43.94-3.85,17-16,24.75S75.71,80.75,75.71,80.75Z"/><path id="Path_240" data-name="Path 240" class="cls-7" d="M170.44,221.48,87,71.15l7.08-2.46,82,149.68a3.25,3.25,0,0,1-1.31,4.4l-.05,0h0A3.23,3.23,0,0,1,170.44,221.48Z"/><path id="Path_241" data-name="Path 241" class="cls-9" d="M136.18,183.1c2.19-4.67-.05-10.06-1.54-15A50.42,50.42,0,0,1,132.53,156a8.85,8.85,0,0,1,.42-3.82,3.4,3.4,0,0,1,2.9-2.22,14,14,0,0,1,2.18,9.92,31.22,31.22,0,0,1,3.83-.75,7.17,7.17,0,0,1,7.81,5c2.15,6.89,2.88,14.25-.11,20.69a40.56,40.56,0,0,1-3.32,5.46l-6.54,9.55a2.87,2.87,0,0,1-1.78,1.47c-.78.11-1.6-.6-2.18-1.26-2-2.24-5.51-5.51-5.13-8.6S134.88,185.85,136.18,183.1Z"/><path id="Path_242" data-name="Path 242" class="cls-12" d="M121.08,154.3c-6.64-.75-14.25,1-17.72,6.78-1.74,2.9-2.17,6.37-2.48,9.74-.43,4.71-.68,9.44-.91,14.16l-1.29,24.84c-.15,3-.3,6-.36,8.92a20.31,20.31,0,0,0,.74,6.89,21.47,21.47,0,0,0,4.07,6.42c1.62,2,3.65,4,6,3.45a6.52,6.52,0,0,0,2.59-1.6l5.42-4.69c3.69-3.17,7.42-6.38,10.23-10.35,1.35-1.92,2.47-4,3.84-5.88,4-5.59,10.22-9.83,12.34-16.38-2-.11-5-.78-5.92-2.59-.5-.95-.57-2.1-1.11-3-.84-1.4-2.72-2.15-3-3.75a91.69,91.69,0,0,0-14.05,14.62l1.73-6.72a4.33,4.33,0,0,1,.77-1.74,7.66,7.66,0,0,1,2-1.28c2.11-1.28,2.91-3.91,3.34-6.34a44.38,44.38,0,0,0-6.29-31.49Z"/></g></g></svg>