<svg xmlns="http://www.w3.org/2000/svg" viewBox="0 0 579 392.32"><defs><style>.cls-1{fill:#f2f2f2;}.cls-2{fill:#fff;}.cls-3,.cls-6,.cls-7{fill:#ffef75;}.cls-3{opacity:0.4;}.cls-3,.cls-7{isolation:isolate;}.cls-4{fill:#3e3e57;}.cls-5{fill:#2f2e41;}.cls-7{opacity:0.3;}</style></defs><title>joke_tracker</title><g id="Layer_2" data-name="Layer 2"><g id="joke_tracker"><path id="Path_183" data-name="Path 183" class="cls-1" d="M385.51,28.3A280.83,280.83,0,0,0,46.93,101.08C135.08,81.77,288.55,48.33,385.51,28.3Z"/><rect id="Rectangle_69" data-name="Rectangle 69" class="cls-2" x="116.91" y="42.02" width="319" height="350.3"/><circle id="Ellipse_14" data-name="Ellipse 14" class="cls-3" cx="392.34" cy="200.46" r="43.25"/><rect id="Rectangle_32" data-name="Rectangle 32" class="cls-4" x="152.15" y="260.3" width="241.18" height="65.37"/><path id="Path_182" data-name="Path 182" class="cls-1" d="M377.88,98.35l-9.63,4.56,8.52-6.37a47.74,47.74,0,0,0-4.65-6.13l-41.77,10.38L368.08,86.4a47.38,47.38,0,0,0-5.48-4.17L299,92.48a47.69,47.69,0,0,0-10.44,29.76h95.8A47.73,47.73,0,0,0,377.88,98.35Z"/><rect id="Rectangle_33" data-name="Rectangle 33" class="cls-5" y="391.03" width="574.78" height="1.13"/><path id="Path_184" data-name="Path 184" class="cls-4" d="M335.77,122.24l-32.6-48.43s49.38,17.24,43.77,48.43Z"/><path id="Path_185" data-name="Path 185" class="cls-6" d="M337.05,122.24l32.61-48.43s-49.38,17.24-43.78,48.43Z"/><path id="Path_186" data-name="Path 186" class="cls-5" d="M393.61,392.16H151.87V31.52H393.61ZM153,391H392.49V32.64H153Z"/><rect id="Rectangle_34" data-name="Rectangle 34" class="cls-5" x="152.71" y="40.07" width="240.62" height="1.13"/><circle id="Ellipse_15" data-name="Ellipse 15" class="cls-6" cx="158.91" cy="36.03" r="2.25"/><circle id="Ellipse_16" data-name="Ellipse 16" class="cls-6" cx="165.11" cy="36.03" r="2.25"/><circle id="Ellipse_17" data-name="Ellipse 17" class="cls-6" cx="171.31" cy="36.03" r="2.25"/><rect id="Rectangle_35" data-name="Rectangle 35" class="cls-6" x="161.16" y="47.86" width="10.14" height="5.64"/><rect id="Rectangle_36" data-name="Rectangle 36" class="cls-6" x="161.16" y="92.38" width="49.59" height="5.64"/><rect id="Rectangle_37" data-name="Rectangle 37" class="cls-1" x="337.54" y="47.86" width="49.59" height="5.64"/><rect id="Rectangle_38" data-name="Rectangle 38" class="cls-1" x="161.16" y="101.96" width="83.4" height="3.38"/><rect id="Rectangle_39" data-name="Rectangle 39" class="cls-1" x="161.16" y="109.28" width="78.89" height="3.38"/><rect id="Rectangle_40" data-name="Rectangle 40" class="cls-1" x="161.16" y="116.61" width="57.48" height="3.38"/><rect id="Rectangle_41" data-name="Rectangle 41" class="cls-1" x="180.32" y="216.91" width="32.68" height="3.38"/><rect id="Rectangle_42" data-name="Rectangle 42" class="cls-1" x="180.32" y="224.24" width="30.92" height="3.38"/><rect id="Rectangle_43" data-name="Rectangle 43" class="cls-1" x="180.32" y="231.56" width="22.52" height="3.38"/><rect id="Rectangle_44" data-name="Rectangle 44" class="cls-1" x="256.39" y="216.91" width="32.68" height="3.38"/><rect id="Rectangle_45" data-name="Rectangle 45" class="cls-1" x="256.39" y="224.24" width="30.92" height="3.38"/><rect id="Rectangle_46" data-name="Rectangle 46" class="cls-1" x="256.39" y="231.56" width="22.52" height="3.38"/><rect id="Rectangle_47" data-name="Rectangle 47" class="cls-1" x="335.29" y="216.91" width="32.68" height="3.38"/><rect id="Rectangle_48" data-name="Rectangle 48" class="cls-1" x="335.29" y="224.24" width="30.92" height="3.38"/><rect id="Rectangle_49" data-name="Rectangle 49" class="cls-1" x="335.29" y="231.56" width="22.52" height="3.38"/><rect id="Rectangle_50" data-name="Rectangle 50" class="cls-6" x="231.04" y="344.83" width="49.59" height="5.64"/><rect id="Rectangle_51" data-name="Rectangle 51" class="cls-1" x="231.04" y="354.41" width="83.4" height="3.38"/><rect id="Rectangle_52" data-name="Rectangle 52" class="cls-1" x="231.04" y="361.73" width="78.89" height="3.38"/><rect id="Rectangle_53" data-name="Rectangle 53" class="cls-1" x="231.04" y="369.06" width="57.48" height="3.38"/><rect id="Rectangle_54" data-name="Rectangle 54" class="cls-7" x="176.1" y="153.23" width="196.1" height="1.13"/><rect id="Rectangle_55" data-name="Rectangle 55" class="cls-7" x="175.81" y="172.96" width="41.7" height="37.19"/><rect id="Rectangle_56" data-name="Rectangle 56" class="cls-4" x="251.89" y="172.96" width="41.7" height="37.19"/><rect id="Rectangle_57" data-name="Rectangle 57" class="cls-4" x="330.78" y="172.96" width="41.7" height="37.19"/><path id="Path_187" data-name="Path 187" class="cls-6" d="M267.3,210h-.55c0-.61.36-15,6-18.93l.32.45C267.65,195.3,267.31,209.85,267.3,210Z"/><circle id="Ellipse_18" data-name="Ellipse 18" class="cls-6" cx="275.67" cy="188.11" r="2.75"/><path id="Path_188" data-name="Path 188" class="cls-6" d="M275.12,197.83a8.62,8.62,0,0,1-4.42.19,7.78,7.78,0,0,1,8-2.75A8.7,8.7,0,0,1,275.12,197.83Z"/><path id="Path_189" data-name="Path 189" class="cls-6" d="M346.2,210h-.55c0-.61.35-15,6-18.93l.32.45C346.54,195.3,346.2,209.85,346.2,210Z"/><circle id="Ellipse_19" data-name="Ellipse 19" class="cls-6" cx="354.56" cy="188.11" r="2.75"/><path id="Path_190" data-name="Path 190" class="cls-6" d="M354,197.83a8.61,8.61,0,0,1-4.42.19,7.78,7.78,0,0,1,8-2.75A8.7,8.7,0,0,1,354,197.83Z"/><rect id="Rectangle_58" data-name="Rectangle 58" class="cls-6" x="161.16" y="281.15" width="49.59" height="5.64"/><rect id="Rectangle_59" data-name="Rectangle 59" class="cls-1" x="161.16" y="290.73" width="83.4" height="3.38"/><rect id="Rectangle_60" data-name="Rectangle 60" class="cls-1" x="161.16" y="298.06" width="78.89" height="3.38"/><rect id="Rectangle_61" data-name="Rectangle 61" class="cls-1" x="161.16" y="305.38" width="57.48" height="3.38"/><circle id="Ellipse_20" data-name="Ellipse 20" class="cls-3" cx="344.73" cy="288.93" r="17.61"/><circle id="Ellipse_21" data-name="Ellipse 21" class="cls-3" cx="312.14" cy="297.34" r="12.35"/><circle id="Ellipse_22" data-name="Ellipse 22" class="cls-5" cx="94.39" cy="328.2" r="44.52"/><rect id="Rectangle_62" data-name="Rectangle 62" class="cls-5" x="74.1" y="363.14" width="13.52" height="24.23"/><rect id="Rectangle_63" data-name="Rectangle 63" class="cls-5" x="101.15" y="363.14" width="13.52" height="24.23"/><ellipse id="Ellipse_23" data-name="Ellipse 23" class="cls-5" cx="85.37" cy="387.65" rx="11.27" ry="4.23"/><ellipse id="Ellipse_24" data-name="Ellipse 24" class="cls-5" cx="112.42" cy="387.09" rx="11.27" ry="4.23"/><circle id="Ellipse_25" data-name="Ellipse 25" class="cls-2" cx="95.52" cy="316.93" r="15.22"/><circle id="Ellipse_26" data-name="Ellipse 26" class="cls-4" cx="95.52" cy="310.17" r="5.07"/><path id="Path_191" data-name="Path 191" class="cls-6" d="M51.21,286.8c-3.6-16.1,7.89-32.36,25.66-36.33s35.09,5.87,38.68,22-8.18,22-25.95,26S54.79,302.9,51.21,286.8Z"/><ellipse id="Ellipse_27" data-name="Ellipse 27" class="cls-5" cx="128.07" cy="278.94" rx="22.26" ry="6.99" transform="translate(-178.87 277.54) rotate(-65.08)"/><ellipse id="Ellipse_28" data-name="Ellipse 28" class="cls-5" cx="46.36" cy="292.47" rx="6.99" ry="22.26" transform="translate(-131.44 55.67) rotate(-27.89)"/><ellipse id="Ellipse_29" data-name="Ellipse 29" class="cls-5" cx="462.08" cy="295.09" rx="6.99" ry="22.26" transform="translate(-75.25 186.13) rotate(-21.1)"/><circle id="Ellipse_30" data-name="Ellipse 30" class="cls-5" cx="503.32" cy="328.6" r="44.52"/><rect id="Rectangle_64" data-name="Rectangle 64" class="cls-5" x="510.21" y="363.49" width="13.52" height="24.23" transform="translate(-1.05 1.45) rotate(-0.16)"/><rect id="Rectangle_65" data-name="Rectangle 65" class="cls-5" x="483.16" y="363.57" width="13.52" height="24.23" transform="translate(-1.05 1.37) rotate(-0.16)"/><ellipse id="Ellipse_31" data-name="Ellipse 31" class="cls-5" cx="512.5" cy="388.02" rx="11.27" ry="4.23" transform="translate(-1.08 1.43) rotate(-0.16)"/><ellipse id="Ellipse_32" data-name="Ellipse 32" class="cls-5" cx="485.45" cy="387.54" rx="11.27" ry="4.23" transform="translate(-1.08 1.36) rotate(-0.16)"/><circle id="Ellipse_33" data-name="Ellipse 33" class="cls-2" cx="502.16" cy="317.33" r="15.22"/><circle id="Ellipse_34" data-name="Ellipse 34" class="cls-4" cx="502.16" cy="317.33" r="5.07"/><path id="Path_192" data-name="Path 192" class="cls-6" d="M546.38,287.08c3.55-16.11-8-32.34-25.76-36.26s-35.07,6-38.62,22.07,8.24,22,26,25.93S542.83,303.19,546.38,287.08Z"/><ellipse id="Ellipse_35" data-name="Ellipse 35" class="cls-5" cx="553.4" cy="307.8" rx="22.26" ry="6.99" transform="translate(-78.63 268.61) rotate(-25.54)"/><path id="Path_193" data-name="Path 193" class="cls-2" d="M525.23,344.6c0,4.35-11.18,13-23.63,13s-24.16-12.2-24.17-16.55,11.67.81,24.12.78S525.22,340.24,525.23,344.6Z"/><circle id="Ellipse_36" data-name="Ellipse 36" class="cls-3" cx="516.87" cy="264.13" r="62.12"/><circle id="Ellipse_37" data-name="Ellipse 37" class="cls-5" cx="107.29" cy="196.45" r="44.52"/><rect id="Rectangle_66" data-name="Rectangle 66" class="cls-5" x="73.49" y="233.58" width="24.23" height="13.52" transform="translate(-166.14 281.76) rotate(-79.74)"/><rect id="Rectangle_67" data-name="Rectangle 67" class="cls-5" x="100.11" y="238.4" width="24.23" height="13.52" transform="translate(-149.01 311.91) rotate(-79.74)"/><ellipse id="Ellipse_38" data-name="Ellipse 38" class="cls-5" cx="112.38" cy="260.08" rx="4.23" ry="11.27" transform="translate(-158.71 177.76) rotate(-49.74)"/><ellipse id="Ellipse_39" data-name="Ellipse 39" class="cls-5" cx="86.32" cy="255.36" rx="4.23" ry="11.27" transform="translate(-164.33 156.2) rotate(-49.74)"/><circle id="Ellipse_40" data-name="Ellipse 40" class="cls-2" cx="110.41" cy="185.56" r="15.22"/><circle id="Ellipse_41" data-name="Ellipse 41" class="cls-4" cx="116.66" cy="180.11" r="5.07"/><path id="Path_194" data-name="Path 194" class="cls-6" d="M72.18,148c-.67-16.48,13.53-30.44,31.72-31.18s33.48,12,34.15,28.5-12,20.22-30.16,21S72.85,164.5,72.18,148Z"/><ellipse id="Ellipse_42" data-name="Ellipse 42" class="cls-5" cx="148.4" cy="188.34" rx="22.26" ry="6.99" transform="translate(-38.33 37.92) rotate(-12.91)"/><ellipse id="Ellipse_43" data-name="Ellipse 43" class="cls-5" cx="61.01" cy="202.87" rx="22.26" ry="6.99" transform="translate(-43.78 18.76) rotate(-12.91)"/><path id="Path_195" data-name="Path 195" class="cls-2" d="M95.07,214a10.14,10.14,0,0,0,20,3.61c1-5.51-3.26-7.46-8.78-8.46S96.07,208.48,95.07,214Z"/><rect id="Rectangle_68" data-name="Rectangle 68" class="cls-4" x="168.21" y="151.26" width="37.19" height="41.7" transform="translate(-31.7 301.62) rotate(-73.31)"/><path id="Path_196" data-name="Path 196" class="cls-6" d="M176.3,188.21l-.52-.17c.19-.58,4.64-14.23,11.19-16.41l.18.52C180.86,174.25,176.35,188.08,176.3,188.21Z"/><circle id="Ellipse_44" data-name="Ellipse 44" class="cls-6" cx="190.6" cy="169.66" r="2.75"/><path id="Path_197" data-name="Path 197" class="cls-6" d="M187.28,178.8a8.48,8.48,0,0,1-4.29-1.09,7.81,7.81,0,0,1,8.48-.33,8.6,8.6,0,0,1-4.19,1.42Z"/></g></g></svg>