<svg xmlns="http://www.w3.org/2000/svg" xmlns:xlink="http://www.w3.org/1999/xlink" viewBox="0 0 877 552"><defs><style>.cls-1{fill:url(#linear-gradient);}.cls-2{fill:#fff;}.cls-3{fill:#f5f5f5;}.cls-4{fill:url(#linear-gradient-2);}.cls-5{fill:url(#linear-gradient-3);}.cls-6{fill:url(#linear-gradient-4);}.cls-7{fill:#ffef75;}.cls-8{fill:url(#linear-gradient-5);}.cls-9{fill:#bdbdbd;}.cls-10{fill:#e0e0e0;}</style><linearGradient id="linear-gradient" x1="441.05" y1="392.77" x2="441.05" y2="554" gradientTransform="matrix(1, 0, 0, -1, 0, 554)" gradientUnits="userSpaceOnUse"><stop offset="0" stop-color="gray" stop-opacity="0.25"/><stop offset="0.54" stop-color="gray" stop-opacity="0.12"/><stop offset="1" stop-color="gray" stop-opacity="0.1"/></linearGradient><linearGradient id="linear-gradient-2" x1="897.96" y1="232.93" x2="897.96" y2="353.23" gradientTransform="matrix(1, 0, 0, -1, -161.5, 380)" gradientUnits="userSpaceOnUse"><stop offset="0" stop-color="#b3b3b3" stop-opacity="0.25"/><stop offset="0.54" stop-color="#b3b3b3" stop-opacity="0.1"/><stop offset="1" stop-color="#b3b3b3" stop-opacity="0.05"/></linearGradient><linearGradient id="linear-gradient-3" x1="860.83" y1="310.35" x2="860.83" y2="316.14" gradientTransform="matrix(1, 0, 0, -1, -161.5, 380)" gradientUnits="userSpaceOnUse"><stop offset="0" stop-opacity="0.12"/><stop offset="0.55" stop-opacity="0.09"/><stop offset="1" stop-opacity="0.02"/></linearGradient><linearGradient id="linear-gradient-4" x1="887.43" y1="317" x2="887.43" y2="334.7" xlink:href="#linear-gradient-3"/><linearGradient id="linear-gradient-5" x1="435.32" y1="2" x2="435.32" y2="339.62" xlink:href="#linear-gradient"/></defs><title>joke_filter</title><g id="Layer_2" data-name="Layer 2"><g id="joke_filter"><rect class="cls-1" x="5.09" width="871.91" height="161.23"/><rect class="cls-2" x="10.18" y="5.28" width="860.45" height="147.38"/><rect class="cls-3" x="63.03" y="35.36" width="500.19" height="87.71"/><path class="cls-4" d="M757.26,41a46.32,46.32,0,1,0-7.58,70.55l33.48,34.83a2.25,2.25,0,0,0,3.18.07h0l8.34-8a2.25,2.25,0,0,0,.07-3.18h0l-33.48-34.83A46.32,46.32,0,0,0,757.26,41ZM746.83,97a33.13,33.13,0,1,1,.92-46.85A33.12,33.12,0,0,1,746.83,97Z"/><path class="cls-5" d="M699.33,63.86c-3.73,0-3.73,5.79,0,5.79S703.06,63.86,699.33,63.86Z"/><path class="cls-6" d="M725.3,45.31a27.82,27.82,0,0,0-24,12.4c-1.58,2.48,2.91,4.67,4.49,2.2,4-6.29,11.65-10.28,19.9-10.07a25.34,25.34,0,0,1,20.69,12c1.58,2.61,5.73.24,4.15-2.35C745.5,51.19,735.66,45.54,725.3,45.31Z"/><path class="cls-7" d="M757.26,35.87a46.32,46.32,0,1,0-7.58,70.55l33.48,34.83a2.25,2.25,0,0,0,3.18.07h0l8.34-8a2.25,2.25,0,0,0,.07-3.18h0L761.27,95.29A46.32,46.32,0,0,0,757.26,35.87Zm-10.43,56A33.13,33.13,0,1,1,747.75,45a33.12,33.12,0,0,1-.92,46.85Z"/><path class="cls-7" d="M699.33,58.76c-3.73,0-3.73,5.79,0,5.79S703.06,58.76,699.33,58.76Z"/><path class="cls-7" d="M725.3,40.22a27.82,27.82,0,0,0-24,12.4c-1.58,2.48,2.91,4.67,4.49,2.2,4-6.29,11.65-10.28,19.9-10.07a25.34,25.34,0,0,1,20.69,12c1.58,2.61,5.73.24,4.15-2.35C745.5,46.1,735.66,40.45,725.3,40.22Z"/><rect class="cls-8" y="214.38" width="870.64" height="337.62"/><rect class="cls-2" x="10.18" y="222.62" width="850.03" height="318.58"/><circle class="cls-7" cx="121.09" cy="381.17" r="71.46"/><rect class="cls-9" x="244.65" y="324.6" width="297.73" height="35.73"/><rect class="cls-10" x="244.65" y="397.54" width="297.73" height="35.73"/><rect class="cls-7" x="580.34" y="222.62" width="281.36" height="318.58"/></g></g></svg>