<svg xmlns="http://www.w3.org/2000/svg" viewBox="0 0 72.63 72.63"><defs><style>.cls-1{fill:#272b77;}</style></defs><title>linkedin</title><g id="Layer_2" data-name="Layer 2"><g id="icons"><path id="linkedin" class="cls-1" d="M71.08,1.54A5,5,0,0,0,67.44,0H5.19A5,5,0,0,0,1.54,1.54,5,5,0,0,0,0,5.19V67.44a5,5,0,0,0,1.54,3.64,5,5,0,0,0,3.65,1.54H67.44a5.26,5.26,0,0,0,5.18-5.18V5.19A5,5,0,0,0,71.08,1.54Zm-49,60.71H11.19V27.56H22.05ZM21,21a6.05,6.05,0,0,1-4.45,1.87,6,6,0,0,1-4.38-1.79,6.38,6.38,0,0,1-1.78-4.45,6.11,6.11,0,0,1,1.78-4.38,5.83,5.83,0,0,1,4.38-1.86A6.08,6.08,0,0,1,21,12.24,6.05,6.05,0,0,1,21,21ZM62.25,62.25H51.55V45.39a24.49,24.49,0,0,0-.16-3.16,26.82,26.82,0,0,0-.57-2.84A3.84,3.84,0,0,0,49.12,37a6,6,0,0,0-3.24-.81c-2.49,0-4.16.81-5,2.43a13.87,13.87,0,0,0-1.3,6.49V62.25H28.69V27.56H39.07v4.7h.16A9.76,9.76,0,0,1,43,28.37a12.12,12.12,0,0,1,6.4-1.62A15.83,15.83,0,0,1,56,28a8.27,8.27,0,0,1,4,3.57,16.41,16.41,0,0,1,1.78,5.11,38.19,38.19,0,0,1,.49,6.64Z"/></g></g></svg>