<svg xmlns="http://www.w3.org/2000/svg" xmlns:xlink="http://www.w3.org/1999/xlink" viewBox="0 0 579 399.7"><defs><style>.cls-1{fill:#e4e2e4;}.cls-2{fill:#ffef75;}.cls-3{fill:#444053;}.cls-4{fill:#3e3e57;}.cls-5{fill:#fff;}.cls-6{fill:#fa5959;}.cls-6,.cls-7,.cls-8{opacity:0.8;}.cls-12,.cls-6,.cls-7,.cls-8,.cls-9{isolation:isolate;}.cls-7{fill:#fed253;}.cls-8{fill:#8ccf4d;}.cls-9{opacity:0.05;}.cls-10{fill:url(#linear-gradient);}.cls-11{fill:#fbbebe;}.cls-12,.cls-14{opacity:0.1;}.cls-13{fill:#33313f;}</style><linearGradient id="linear-gradient" x1="-2843.64" y1="499.8" x2="-2842.64" y2="499.8" gradientTransform="matrix(76.01, 0, 0, -191.2, 216527.28, 95865.86)" gradientUnits="userSpaceOnUse"><stop offset="0" stop-color="gray" stop-opacity="0.25"/><stop offset="0.54" stop-color="gray" stop-opacity="0.12"/><stop offset="1" stop-color="gray" stop-opacity="0.1"/></linearGradient></defs><title>secure_joke</title><g id="Layer_2" data-name="Layer 2"><g id="secure_joke"><path id="Path_109" data-name="Path 109" class="cls-1" d="M327.5,54.42c-37.12,0-72.84-10.47-107-22.16S152.42,7.49,116,1.94C92.57-1.62,65.93-1.29,47.62,11.65,30,24.1,24.89,44.71,22.43,63.75c-1.85,14.32-2.7,29.36,4.23,42.46,4.82,9.1,13.06,16.59,18.87,25.26,20.28,30.16,8.08,68.68-11.62,99.54-9.24,14.48-20.07,28.35-27,43.66S-3,307.34,4.13,322.44s23,25.85,40.12,33.27c34.76,15.1,75.22,18.34,114.6,19.59,87.17,2.76,174.5-2.88,261.6-8.52,32.23-2.08,64.61-4.18,96.18-10.23,17.52-3.35,35.57-8.32,48-19.23,15.77-13.84,19-36.44,7.52-52.68-19.25-27.25-70-32.39-83.81-61.87-7.61-16.23-1-34.85,8.62-50.49,20.74-33.57,56.42-63.64,57-101.18C554.4,45.32,535.84,20.16,508.12,9c-29.06-11.74-68.68-8.72-89,13.16C398.15,44.65,360.27,54.39,327.5,54.42Z"/><path id="Path_110" data-name="Path 110" class="cls-2" d="M492.79,320.42s-6.1-4-12.15-1.16c0,0,1.86,3.58,9.51,3.25Z"/><path id="Path_111" data-name="Path 111" class="cls-2" d="M493.56,320.63s1.86,7.07-2.8,11.88c0,0-2.8-2.91,0-10.05Z"/><path id="Path_112" data-name="Path 112" class="cls-2" d="M501.15,313.85s-.46-6-14-4c0,0-.07,3.88,4.7,5.71S498.77,315.83,501.15,313.85Z"/><path id="Path_113" data-name="Path 113" class="cls-2" d="M502,313.81s5.74,1.84.62,14.57c0,0-3.79-.84-4.47-5.91S499.49,315.65,502,313.81Z"/><path id="Path_114" data-name="Path 114" class="cls-2" d="M509.67,305.28s.78-9.9-13.1-8.88c0,0-1,8.93,10.65,11.26Z"/><path id="Path_115" data-name="Path 115" class="cls-2" d="M518.84,294.1s-1.9-11.21-15.78-7.87c0,0-.05,9.7,13.51,10.54Z"/><path id="Path_116" data-name="Path 116" class="cls-2" d="M525.54,282.56s-3.19-10.93-16.93-7.66c0,0,3.27,9.83,16,9.67Z"/><path id="Path_117" data-name="Path 117" class="cls-2" d="M531.9,271.28s-3.11-11.34-16.38-7.95c0,0,4.43,10.77,15.51,9.86Z"/><path id="Path_118" data-name="Path 118" class="cls-2" d="M536,260.56s-2.4-13.86-14.77-10.79c0,0,3.59,12.61,13.86,12.81Z"/><path id="Path_119" data-name="Path 119" class="cls-2" d="M539.85,247.62s-2.87-14-15.39-9.93c0,0,4.91,13.21,14.5,11.84Z"/><path id="Path_120" data-name="Path 120" class="cls-2" d="M542.22,235.57s-4.57-14-14.24-13.6c0,0,4.66,14.76,13.43,16.39Z"/><path id="Path_121" data-name="Path 121" class="cls-2" d="M543.75,223.82s-5-16.82-12.84-15.53c0,0,3.43,12.86,12.56,18.15Z"/><path id="Path_122" data-name="Path 122" class="cls-2" d="M544.61,209.79s-4.66-14-12.41-14.58c0,0,3.16,13.8,12.26,18.22Z"/><path id="Path_123" data-name="Path 123" class="cls-2" d="M545.55,196.7s-5.8-14-10.92-14.35c0,0,2.52,13.82,10.42,16.66Z"/><path id="Path_124" data-name="Path 124" class="cls-2" d="M546.19,184.53s-3.57-15.24-8.7-16.5c0,0,.7,12.47,8.18,17.64Z"/><path id="Path_125" data-name="Path 125" class="cls-2" d="M548.12,168.58s-3.75-12.15-7.9-14c0,0,.81,14.32,6.95,17Z"/><path id="Path_126" data-name="Path 126" class="cls-2" d="M549.73,158.16l.75-21.42s-7.77,16.14-1.31,25.17Z"/><path id="Path_127" data-name="Path 127" class="cls-2" d="M555.73,136.85s5.6-15.64,6.95-16.51c0,0-11,10.15-9.9,23.2Z"/><path id="Path_128" data-name="Path 128" class="cls-2" d="M510,305.2s9.84-1.28,9.55,12.62c0,0-8.89,1.45-11.8-10.05Z"/><path id="Path_129" data-name="Path 129" class="cls-2" d="M519.3,293.73s11.37,0,10.43,14.2c0,0-9.55,1.71-12.7-11.51Z"/><path id="Path_130" data-name="Path 130" class="cls-2" d="M525.65,283.48s10.32-4.85,16.92,7.65c0,0-9.53,4-17.84-5.63Z"/><path id="Path_131" data-name="Path 131" class="cls-2" d="M532.13,271.38s10.57-5.15,16.78,7.06c0,0-11,3.79-17.65-5.13Z"/><path id="Path_132" data-name="Path 132" class="cls-2" d="M535.87,260.86s10.17-9.71,18.29.11c0,0-10.39,8-18.76,2.06Z"/><path id="Path_133" data-name="Path 133" class="cls-2" d="M539.28,247.29s10.23-9.93,18.28.45c0,0-11.48,8.16-18.65,1.63Z"/><path id="Path_134" data-name="Path 134" class="cls-2" d="M541.19,235.18s7.88-12.42,17.17-9.65c0,0-8.18,13.15-17.08,12.56Z"/><path id="Path_135" data-name="Path 135" class="cls-2" d="M543.51,223.74s7.94-15.63,15.46-12.91c0,0-5.73,12-15.66,15.54Z"/><path id="Path_136" data-name="Path 136" class="cls-2" d="M544.06,209s8.17-12.3,15.82-10.8c0,0-6.68,12.47-16.61,14.35Z"/><path id="Path_137" data-name="Path 137" class="cls-2" d="M544.7,196.43s6.33-13.81,11.47-13.9c0,0-3,13.71-11,16.25Z"/><path id="Path_138" data-name="Path 138" class="cls-2" d="M545.94,184.23s7-14,12.32-14c0,0-3.6,12-12.09,15.24Z"/><path id="Path_139" data-name="Path 139" class="cls-2" d="M547,169.46s5.26-11.57,9.62-12.88c0,0-2.63,14.1-9,15.94Z"/><path id="Path_140" data-name="Path 140" class="cls-2" d="M550.35,157.73l11.77-17.92s-3,17.68-13.48,21.35Z"/><path id="Path_141" data-name="Path 141" class="cls-2" d="M558.43,138.3s13.67-9.44,14.16-11c0,0-7,13.21-19.86,15.54Z"/><path id="Path_142" data-name="Path 142" class="cls-2" d="M559.25,134.05S574.94,119,579,119c0,0-13,.59-20.08,14.27Z"/><path id="Path_143" data-name="Path 143" class="cls-3" d="M547.15,171.69l.57.08c2.95-23.08,7.25-36.74,12.1-38.42l-.19-.54C554.49,134.6,550.16,148.05,547.15,171.69Z"/><path id="Path_144" data-name="Path 144" class="cls-3" d="M542.81,226.89l.87.07c.18-2.15.32-4.35.41-6.55.83-19.11,2.1-36.66,3.78-49.8l-.5-.63c-1.68,13.19-3.32,31.26-4.14,50.39C543.14,222.56,543,224.75,542.81,226.89Z"/><path id="Path_145" data-name="Path 145" class="cls-3" d="M476.68,331.43c.15-.06,15.36-6.86,31.14-23.05a125.19,125.19,0,0,0,22.76-32.27c7.3-14.86,11.75-33.12,13.24-50.86l-.9.42c-3.35,39.82-21.48,67-35.89,81.85-15.63,16.05-30.67,22.77-30.82,22.83Z"/><path id="Path_146" data-name="Path 146" class="cls-4" d="M516.06,42.32H39a4.25,4.25,0,0,0-4.25,4.25h0V59H520.31V46.57a4.25,4.25,0,0,0-4.25-4.25Z"/><path id="Path_147" data-name="Path 147" class="cls-5" d="M34.73,59V337.6a8.57,8.57,0,0,0,8.57,8.57H511.74a8.57,8.57,0,0,0,8.57-8.56h0V59Z"/><circle id="Ellipse_9" data-name="Ellipse 9" class="cls-6" cx="42.43" cy="50.51" r="1.99"/><circle id="Ellipse_10" data-name="Ellipse 10" class="cls-7" cx="47.89" cy="50.51" r="1.99"/><circle id="Ellipse_11" data-name="Ellipse 11" class="cls-8" cx="53.35" cy="50.51" r="1.99"/><rect id="Rectangle_28" data-name="Rectangle 28" class="cls-9" x="79.87" y="105.41" width="390.24" height="171.6"/><rect id="Rectangle_29" data-name="Rectangle 29" class="cls-4" x="82.85" y="106.71" width="384.29" height="167.82"/><path id="Path_148" data-name="Path 148" class="cls-2" d="M187.61,149.9a38.23,38.23,0,1,0,38.23,38.23,38.23,38.23,0,0,0-38.23-38.23Zm6.86,39.15v18.1H181v-18.1a11.2,11.2,0,1,1,13.52,0Z"/><path id="Path_149" data-name="Path 149" class="cls-9" d="M187.61,149.9a38.23,38.23,0,1,0,38.23,38.23,38.23,38.23,0,0,0-38.23-38.23Zm6.86,39.15v18.1H181v-18.1a11.2,11.2,0,1,1,13.52,0Z"/><path id="Path_150" data-name="Path 150" class="cls-2" d="M187.61,139a49.16,49.16,0,1,0,49.15,49.15A49.15,49.15,0,0,0,187.61,139Zm8.81,50.34v23.27H179.05V189.32a14.4,14.4,0,1,1,17.37,0Z"/><rect id="Rectangle_30" data-name="Rectangle 30" class="cls-5" x="257.12" y="181.68" width="158.88" height="16.88"/><rect id="Rectangle_31" data-name="Rectangle 31" class="cls-2" x="381.74" y="212.47" width="34.26" height="16.88"/><path id="Path_151" data-name="Path 151" class="cls-4" d="M272.76,189.87h-2.88l2.56-2.55a.26.26,0,0,0,0-.35.25.25,0,0,0-.35,0h0l-2.55,2.55v-2.88a.25.25,0,0,0-.25-.25.26.26,0,0,0-.25.25v2.88L266.48,187a.24.24,0,0,0-.35,0h0a.24.24,0,0,0,0,.35l2.55,2.56H265.8a.26.26,0,0,0-.25.24.25.25,0,0,0,.25.25h2.88l-2.55,2.56a.24.24,0,0,0,0,.35.26.26,0,0,0,.35,0L269,190.7v2.88a.25.25,0,1,0,.5,0v-2.87l2.56,2.55a.25.25,0,0,0,.35-.35l-2.56-2.56h2.88a.24.24,0,0,0,.24-.24.24.24,0,0,0-.24-.24Z"/><path id="Path_152" data-name="Path 152" class="cls-4" d="M283.19,189.87h-2.88l2.55-2.55a.24.24,0,0,0,0-.35.25.25,0,0,0-.35,0h0L280,189.52v-2.88a.25.25,0,0,0-.24-.25.26.26,0,0,0-.25.25v2.88L276.91,187a.25.25,0,0,0-.36,0h0a.26.26,0,0,0,0,.35l2.56,2.56h-2.88a.25.25,0,1,0,0,.49h2.88l-2.56,2.56a.26.26,0,0,0,0,.35.27.27,0,0,0,.36,0l2.55-2.56v2.88a.25.25,0,0,0,.5,0v-2.87l2.55,2.55a.25.25,0,0,0,.36,0,.26.26,0,0,0,0-.35l-2.56-2.56h2.88a.24.24,0,0,0,.24-.24.24.24,0,0,0-.24-.24Z"/><path id="Path_153" data-name="Path 153" class="cls-4" d="M293.61,189.87h-2.88l2.56-2.55a.24.24,0,0,0,0-.35.25.25,0,0,0-.35,0h0l-2.56,2.55v-2.88a.25.25,0,0,0-.25-.25.28.28,0,0,0-.25.25v2.88L287.33,187a.24.24,0,0,0-.35,0h0a.24.24,0,0,0,0,.35l2.56,2.56h-2.88a.25.25,0,1,0,0,.49h2.88L287,192.91a.24.24,0,0,0,0,.35.26.26,0,0,0,.35,0l2.55-2.56v2.88a.25.25,0,0,0,.25.25.25.25,0,0,0,.25-.25v-2.87l2.56,2.55a.26.26,0,0,0,.35,0,.24.24,0,0,0,0-.35l-2.55-2.56h2.87a.24.24,0,1,0,0-.48Z"/><path id="Path_154" data-name="Path 154" class="cls-4" d="M304,189.87h-2.88l2.56-2.55a.26.26,0,0,0,0-.35.26.26,0,0,0-.36,0h0l-2.55,2.55v-2.88a.25.25,0,0,0-.25-.25.26.26,0,0,0-.25.25v2.88L297.76,187a.24.24,0,0,0-.35,0h0a.24.24,0,0,0,0,.35l2.55,2.56h-2.88a.26.26,0,0,0-.25.24.25.25,0,0,0,.25.25H300l-2.55,2.56a.24.24,0,0,0,0,.35.26.26,0,0,0,.35,0l2.55-2.56v2.88a.25.25,0,0,0,.5,0v-2.87l2.56,2.55a.25.25,0,0,0,.35-.35l-2.56-2.56H304a.24.24,0,0,0,.24-.24.24.24,0,0,0-.24-.24Z"/><path id="Path_155" data-name="Path 155" class="cls-4" d="M314.46,189.87h-2.87l2.55-2.55a.24.24,0,0,0,0-.35.25.25,0,0,0-.35,0h0l-2.56,2.55v-2.88a.25.25,0,0,0-.25-.25.26.26,0,0,0-.24.25v2.88L308.18,187a.24.24,0,0,0-.35,0h0a.26.26,0,0,0,0,.35l2.56,2.56h-2.88a.25.25,0,1,0,0,.49h2.88l-2.56,2.56a.25.25,0,0,0,.35.35l2.56-2.56v2.88a.25.25,0,0,0,.25.25.25.25,0,0,0,.25-.25v-2.87l2.55,2.55a.27.27,0,0,0,.36,0,.26.26,0,0,0,0-.35l-2.56-2.56h2.87a.24.24,0,1,0,0-.48Z"/><path id="Path_156" data-name="Path 156" class="cls-4" d="M324.89,189.87H322l2.56-2.55a.26.26,0,0,0,0-.35.25.25,0,0,0-.35,0h0l-2.56,2.55v-2.88a.25.25,0,0,0-.25-.25.27.27,0,0,0-.25.25v2.88L318.61,187a.24.24,0,0,0-.35,0h0a.24.24,0,0,0,0,.35l2.55,2.56h-2.88a.25.25,0,0,0,0,.49h2.88l-2.55,2.56a.24.24,0,0,0,0,.35.26.26,0,0,0,.35,0l2.55-2.56v2.88a.25.25,0,0,0,.5,0v-2.87l2.56,2.55a.26.26,0,0,0,.35,0,.24.24,0,0,0,0-.35L322,190.35h2.88a.24.24,0,0,0,.24-.24.24.24,0,0,0-.24-.24Z"/><path id="Path_157" data-name="Path 157" class="cls-4" d="M335.32,189.87h-2.88l2.56-2.55a.26.26,0,0,0,0-.35.26.26,0,0,0-.36,0h0l-2.55,2.55v-2.88a.25.25,0,0,0-.5,0v2.88L329,187a.24.24,0,0,0-.35,0h0a.24.24,0,0,0,0,.35l2.55,2.56h-2.88a.26.26,0,0,0-.25.24.25.25,0,0,0,.25.25h2.88l-2.55,2.56a.24.24,0,0,0,0,.35.26.26,0,0,0,.35,0l2.55-2.56v2.88a.25.25,0,0,0,.5,0v-2.87l2.56,2.55a.24.24,0,0,0,.35,0,.26.26,0,0,0,0-.35l-2.56-2.56h2.88a.24.24,0,0,0,.24-.24.24.24,0,0,0-.24-.24Z"/><path id="Path_158" data-name="Path 158" class="cls-4" d="M345.74,189.87h-2.88l2.56-2.55a.24.24,0,0,0,0-.35.25.25,0,0,0-.35,0h0l-2.56,2.55v-2.88a.25.25,0,0,0-.25-.25.26.26,0,0,0-.24.25v2.88L339.46,187a.24.24,0,0,0-.35,0h0a.26.26,0,0,0,0,.35l2.56,2.56h-2.88a.25.25,0,1,0,0,.49h2.88l-2.56,2.56a.25.25,0,1,0,.35.35L342,190.7v2.88a.25.25,0,0,0,.25.25.25.25,0,0,0,.25-.25v-2.87l2.55,2.55a.27.27,0,0,0,.36,0,.26.26,0,0,0,0-.35l-2.56-2.56h2.87a.24.24,0,0,0,.25-.24.24.24,0,0,0-.24-.24Z"/><path id="Path_159" data-name="Path 159" class="cls-4" d="M356.17,189.87h-2.88l2.56-2.55a.26.26,0,0,0,0-.35.25.25,0,0,0-.35,0h0l-2.55,2.55v-2.88a.25.25,0,0,0-.25-.25.26.26,0,0,0-.25.25v2.88L349.89,187a.24.24,0,0,0-.35,0h0a.24.24,0,0,0,0,.35l2.55,2.56h-2.88a.25.25,0,0,0,0,.49h2.88l-2.55,2.56a.24.24,0,0,0,0,.35.26.26,0,0,0,.35,0l2.55-2.56v2.88a.25.25,0,0,0,.5,0v-2.87l2.56,2.55a.25.25,0,0,0,.35-.35l-2.56-2.56h2.88a.24.24,0,0,0,.24-.24.24.24,0,0,0-.24-.24Z"/><path id="Path_160" data-name="Path 160" class="cls-4" d="M366.6,189.87h-2.88l2.55-2.55a.24.24,0,0,0,0-.35.25.25,0,0,0-.35,0h0l-2.56,2.55v-2.88a.25.25,0,0,0-.24-.25.26.26,0,0,0-.25.25v2.88L360.32,187a.24.24,0,0,0-.35,0h0a.26.26,0,0,0,0,.35l2.56,2.56h-2.88a.26.26,0,0,0-.25.24.25.25,0,0,0,.25.25h2.88L360,192.91a.26.26,0,0,0,0,.35.27.27,0,0,0,.36,0l2.55-2.56v2.88a.25.25,0,1,0,.5,0v-2.87l2.56,2.55a.25.25,0,1,0,.35-.35l-2.56-2.56h2.88a.24.24,0,0,0,.24-.24.24.24,0,0,0-.24-.24Z"/><path id="Path_161" data-name="Path 161" class="cls-4" d="M377,189.87h-2.88l2.56-2.55a.24.24,0,0,0,0-.35.25.25,0,0,0-.35,0h0l-2.56,2.55v-2.88a.25.25,0,0,0-.25-.25.28.28,0,0,0-.25.25v2.88L370.74,187a.24.24,0,0,0-.35,0h0a.24.24,0,0,0,0,.35l2.56,2.56h-2.88a.25.25,0,1,0,0,.49H373l-2.56,2.56a.24.24,0,0,0,0,.35.26.26,0,0,0,.35,0l2.55-2.56v2.88a.25.25,0,0,0,.25.25.25.25,0,0,0,.25-.25v-2.87l2.56,2.55a.26.26,0,0,0,.35,0,.24.24,0,0,0,0-.35l-2.55-2.56H377a.24.24,0,1,0,0-.48Z"/><path id="Path_162" data-name="Path 162" class="cls-10" d="M457,250.27a8.84,8.84,0,0,0-.22-1.78c-.45-1.68-1.45-3.71-3.11-4.22a26.11,26.11,0,0,1-4.94-2.08c-.3-5.32.93-10.77-.4-15.93a40.77,40.77,0,0,1-1.54-5.63c-.27-2.4.38-5-.57-7.17a7.11,7.11,0,0,0-4.2-3.63,22.25,22.25,0,0,0-5.6-1c-2.39-.2-10.1-1.11-12.79,1h0a2.63,2.63,0,0,0-.5.5h0a1.4,1.4,0,0,0-.16.26l0,0a1.79,1.79,0,0,0-.13.32h0a2.49,2.49,0,0,0-.09.37v.9c0,.45.1.89.1,1.33a2.46,2.46,0,0,1-.06.66,4.47,4.47,0,0,1-.82,1.61h0l-.09.13-.16.23-.13.21a1.74,1.74,0,0,0-.11.18,2,2,0,0,0-.13.25c0,.05-.06.09-.07.14a1.77,1.77,0,0,0-.15.42,2.68,2.68,0,0,0,0,1.32,4.77,4.77,0,0,0,.68,1.57,7,7,0,0,0,.4.6l.34.47a12.81,12.81,0,0,0-.1,1.39,10.29,10.29,0,0,0,3.93,8.07,30.85,30.85,0,0,1-.07,6.3c0,.44-.1.88-.16,1.32s-.1.72-.16,1.08a5,5,0,0,1-2.17-.16,9.17,9.17,0,0,0-1-.38c-1.45-.36-2.92,1.07-4.35.64a.48.48,0,0,1-.07.2,1.94,1.94,0,0,0-1-.3,3.62,3.62,0,0,1-2.16-1.23l-1.89-1.78a2.91,2.91,0,0,1-.33-.37,2.61,2.61,0,0,1-.22-.61,7,7,0,0,0-1.84-2.63,1.18,1.18,0,0,0-.54-.39,1,1,0,0,0-.24,0c-.06-.07-.11-.14-.17-.2a4.07,4.07,0,0,0-.41-.42c-.9-.83-1-1.55-1.78-2.48a24.64,24.64,0,0,1-1.85-2.8c-.07-.52-.16-1.06-.27-1.6a20.76,20.76,0,0,0-1.08-3.63l-1-2.2-.11.12c-.72-1.08-1.49-1.66-2.18-1.52-1.16.24-1.73,2.48-1.55,5.41l.4,3a1,1,0,0,0,.06.23,5.47,5.47,0,0,0-.11,1.07c0,.42.39.72.59,1.1a3.07,3.07,0,0,1,.5,1.69c0,.22-.09.42-.1.63a2.44,2.44,0,0,0,.47,1.29l2.48,4.17.5.87,0,0a2.16,2.16,0,0,0,.67.77,8.81,8.81,0,0,0,.82,3,5.6,5.6,0,0,0,.27.55,17.37,17.37,0,0,0,2.35,3L409.8,246c1.17,1.3,2.33,2.61,3.6,3.81A4.77,4.77,0,0,0,415,250.9a1.78,1.78,0,0,0,1.8-.26v1.85a1,1,0,0,1,1,1.1,1.13,1.13,0,0,1-.19.53,41,41,0,0,1-3.68,7.78,15.94,15.94,0,0,1,3.08,2.34,13.49,13.49,0,0,1,1.6,2.17c0,.37.08.73.1,1.1.37,5.91-1.92,11.79-4,17.43a13.77,13.77,0,0,0-1.19,4.93,9.77,9.77,0,0,0-1.11.8,7.45,7.45,0,0,1,.2,3.15,5.45,5.45,0,0,1-.41,2,13.32,13.32,0,0,1-.72,1.27c-1.28,2.27-1.56,5-1.82,7.56-.16,1.56.45,3.47-.26,4.88a19.81,19.81,0,0,0-2.48,7.63,8.19,8.19,0,0,1-.23,1.78c-.16.5-.43.92-.57,1.41a6.27,6.27,0,0,0-.1,2,19,19,0,0,1-1,7c-.62,1.77-1.31,3.67-.82,5.49a7.71,7.71,0,0,0-2.1,4.61,7.32,7.32,0,0,1-.16,1.32,5.83,5.83,0,0,1-.6,1.26,11.06,11.06,0,0,0-1.35,6,16.55,16.55,0,0,0-2.67,7c-.45,2.48-.64,5-1.2,7.45-.76,3.24-2.12,6.51-2.39,9.83-1.61,1-2.3,3-2.61,4.9s-.36,3.85-1.15,5.6c-.41.9-1,1.71-1.38,2.63a12.06,12.06,0,0,0-.6,2.27,8.86,8.86,0,0,0-.16,3.73,5.56,5.56,0,0,1-1.45,1.1c.08-.31.14-.61.2-.93-1.28,1.17-3.6.76-4.63,2.15a2.11,2.11,0,0,0,.5,2.88,4.26,4.26,0,0,0,1,.44c2.48.79,5,1.59,7.59,1.17a2.22,2.22,0,0,0,.86-.27,2.94,2.94,0,0,0,.8-.92l1.14-1.82a23.87,23.87,0,0,0,2.78.65c.1.79.17,1.59.2,2.38.5.1,1.16.13,1.4-.33a1.3,1.3,0,0,0,.09-.55c0-.35.05-.82.08-1.3h.1a9.5,9.5,0,0,0,4.39-.89c-.53-4.4,1.22-8.7,2.74-12.86,1.6-4.38,3-8.84,4.36-13.3,1-3.14,2.09-6.18,3.07-9.32q1.83-6,3.69-11.92c.53-1.74,1.07-3.47,1.69-5.21a79.66,79.66,0,0,1,4.6-10.24c.5-.94,1-1.87,1.4-2.84.5-1.19.85-2.43,1.25-3.66a56.15,56.15,0,0,1,3.11-7.33c0-.07.06-.13.1-.19.4,1.65.8,3.31,1.07,5a18.82,18.82,0,0,1,.08,6.13,21,21,0,0,0-.63,4.17c.07,1.94,1.11,3.7,1.62,5.57a21.17,21.17,0,0,1,.56,4.27c.14,2.24,1.35,4.74.5,6.81-2.66,6.56-1.37,14-2.89,20.86-.78,3.53-3.16,6.85-3,10.47.14,2.56.36,5.12.68,7.67a7.44,7.44,0,0,0,.62,2.33,8.9,8.9,0,0,0,.68,1.11c-.22.09-.4.31-.56.78a3.07,3.07,0,0,0,1.1,3.48,4.87,4.87,0,0,0,1.43.5,7.74,7.74,0,0,0,2.08.29,4.62,4.62,0,0,0,.65-.08,24.32,24.32,0,0,0,2.35.84,6,6,0,0,0,.06.61.78.78,0,0,0,.26.56.7.7,0,0,0,.4.07h2.7V399a2.23,2.23,0,0,0,1.71-.56,2.6,2.6,0,0,0,.5-1c.74-2.49,1.47-5,2.19-7.48a24,24,0,0,0,1.07-8.54c-1-9.15,1.15-18.33.46-27.51a65.66,65.66,0,0,1,.85-16.5c.22-1.23.5-2.48.6-3.71.22-2.31-.05-4.65.11-6.95.06-.8.16-1.6.26-2.4a115.29,115.29,0,0,0,1.07-15,45.7,45.7,0,0,0-.31-5,2.82,2.82,0,0,0,1.36-.8,3.37,3.37,0,0,0,.32-2.12,15.41,15.41,0,0,1,1.34-5.07,62.5,62.5,0,0,0,1.88-7,24.42,24.42,0,0,0,.83-5.83q0-.3,0-.6a1.82,1.82,0,0,0,.46-.5,2.77,2.77,0,0,0,.23-.92c.18-1.27.37-2.54.55-3.81l.39-2.73,1.58-11c.13-1,.27-1.92.4-2.87l.42-2.85c0-.34.09-.67.12-1C458.24,255.27,457.08,252.57,457,250.27Zm-13.17,41.25a9.07,9.07,0,0,1-1-4.31h-.06a2.23,2.23,0,0,0-.06-1.4c-.16-.36-.42-.67-.59-1a4.09,4.09,0,0,1-.27-1.39,38.26,38.26,0,0,1,.71-9c.07-.35.14-.7.2-1.05a2.71,2.71,0,0,0,.57-.44,4,4,0,0,0,.64-1c.56-1.13,1.07-2.28,1.55-3.45.15-.37.37-.81.76-.9-.08,2.9.21,5.86-1,8.49a5.68,5.68,0,0,0-.5,1.34c-.11.74.2,1.49.09,2.22-.05.38-.22.74-.28,1.11a1.1,1.1,0,0,0,.29,1.06.68.68,0,0,0,.21.1c0,.2-.05.4-.07.6,0,.41-.06.79-.09,1a32,32,0,0,0-.13,3.66c0,1.31,0,2.63,0,4a2.75,2.75,0,0,1-.19,1.13,2.28,2.28,0,0,1-.38.5,10.74,10.74,0,0,0-.47-1.23Z"/><ellipse id="Ellipse_12" data-name="Ellipse 12" class="cls-11" cx="403" cy="226.14" rx="2.8" ry="7.93" transform="translate(-37.22 85.58) rotate(-11.59)"/><path id="Path_163" data-name="Path 163" class="cls-4" d="M427.72,393.49a3,3,0,0,0,1.1,3.45,5.52,5.52,0,0,0,1.43.5,7.6,7.6,0,0,0,2.07.28c.86,0,1.68-.38,2.54-.5a.36.36,0,0,1,.29,0,.41.41,0,0,1,.11.35,14.56,14.56,0,0,0,.11,1.46.76.76,0,0,0,.26.56.79.79,0,0,0,.4.07h2.69a26.3,26.3,0,0,0-.77-7,1.28,1.28,0,0,0-.2-.5,1.64,1.64,0,0,0-.86-.5,4.6,4.6,0,0,0-2.08-.36,6.18,6.18,0,0,0-2.33,1.14,3.51,3.51,0,0,1-2.64.64C428.94,392.86,428.18,392.11,427.72,393.49Z"/><path id="Path_164" data-name="Path 164" class="cls-11" d="M388.21,391.31a7.32,7.32,0,0,1-2.71,1.85l-.46.22a.3.3,0,0,0-.15.12.28.28,0,0,0,.05.23,3.21,3.21,0,0,0,3.64,1.32,1.85,1.85,0,0,0,.8-.41A2.64,2.64,0,0,0,390,393a3.29,3.29,0,0,0-.08-1.84C389.23,389.65,389,390.36,388.21,391.31Z"/><path id="Path_165" data-name="Path 165" class="cls-4" d="M398.53,397.43a1.14,1.14,0,0,1-.08.55c-.24.46-.89.43-1.39.33a33.77,33.77,0,0,0-.61-5c-1-.05-1.66.87-2.18,1.69l-1.33,2.11a2.69,2.69,0,0,1-.79.92,2.22,2.22,0,0,1-.86.27c-2.54.43-5.11-.37-7.56-1.17a3.74,3.74,0,0,1-1-.43,2.1,2.1,0,0,1-.5-2.87c1-1.39,3.33-1,4.61-2.15a11.57,11.57,0,0,1-.65,2.37c1.71-.26,2.86-1.83,4.24-2.88a2.64,2.64,0,0,1,1.22-.57,2.56,2.56,0,0,1,1,.1,11.61,11.61,0,0,1,4.37,2.15,4.68,4.68,0,0,1,1.56,1.63A11.73,11.73,0,0,1,398.53,397.43Z"/><circle id="Ellipse_13" data-name="Ellipse 13" class="cls-11" cx="432.69" cy="223.36" r="10.26"/><path id="Path_166" data-name="Path 166" class="cls-4" d="M452.89,283.92a24.17,24.17,0,0,1-.83,5.8,59.4,59.4,0,0,1-1.88,6.95,15.14,15.14,0,0,0-1.32,5.07,3.42,3.42,0,0,1-.33,2.11,3.07,3.07,0,0,1-1.45.83,1.8,1.8,0,0,0-1.22,1.09,7.72,7.72,0,0,1-1-2.28c-.89-2.72-1.71-5.47-2.48-8.22a1.1,1.1,0,0,1,.07-1,1.22,1.22,0,0,1,.43-.24,4.64,4.64,0,0,0,1.38-.88,2.19,2.19,0,0,0,.46-.59,2.72,2.72,0,0,0,.19-1.13c0-1.31,0-2.62,0-3.94a34.07,34.07,0,0,1,.14-3.64c0-.23,0-.62.09-1,.07-.78.22-1.69.64-2,.63-.42,2.52.14,3.24.24,1.23.17,2.48.37,3.68.6A10.63,10.63,0,0,1,452.89,283.92Z"/><path id="Path_167" data-name="Path 167" class="cls-4" d="M411.47,234.84c-.4.8-1.35,1.18-2.08,1.68l-2.52,1.73a1.67,1.67,0,0,1-1.24.43,1.64,1.64,0,0,1-.93-.88v0l-.52-.87-2.49-4.16a2.45,2.45,0,0,1-.46-1.28c0-.21.08-.41.1-.63a3.07,3.07,0,0,0-.5-1.69c-.2-.37-.6-.68-.59-1.1a4,4,0,0,1,.28-1.6,3.25,3.25,0,0,1,1.08-1.16l.72-.5a1.46,1.46,0,0,1,.44-.2c.41-.08.82.26,1.23.28,1.79,1.2,2.49,3.47,3.89,5.11.8.93.88,1.65,1.78,2.48l.41.41a2.9,2.9,0,0,1,.45.65C410.69,233.93,411.68,234.44,411.47,234.84Z"/><path id="Path_168" data-name="Path 168" class="cls-11" d="M429.08,233.62a9.27,9.27,0,0,1,1.1,5,3.07,3.07,0,0,1-.43,1.32c-.72,1.1-2.22,1.3-3.52,1.36a2,2,0,0,0-1.53.5,1.4,1.4,0,0,0,.09,1.7,3.75,3.75,0,0,0,1.52,1,13.36,13.36,0,0,0,6.54,1.45c1-.1,2.06-.4,3.09-.55a30,30,0,0,1,3.41-.19c1.35,0,2.7-.19,4-.32l3.57-.35a.81.81,0,0,0,.53-.2c.26-.31-.08-.76-.4-1-1.89-1.4-4.3-2.36-5.38-4.47a26.06,26.06,0,0,1-1-3.25,28,28,0,0,1-1.18-3.13,19.93,19.93,0,0,1-.16-2.89,3.85,3.85,0,0,0-1-2.64,4.11,4.11,0,0,0-2.7-.87,8.75,8.75,0,0,0-6.58,2.14c-.45.45-.84,1-1.3,1.4s-1.1.52-.8,1.06.92.87,1.24,1.34A12.27,12.27,0,0,1,429.08,233.62Z"/><path id="Path_169" data-name="Path 169" class="cls-4" d="M449.3,248.07a55.54,55.54,0,0,1-3,11.18,42.13,42.13,0,0,0-1.78,5c-.39,1.54-.31,3.18-.66,4.73-.44,1.92-.88,3.85-1.23,5.78a38.21,38.21,0,0,0-.7,9,3.65,3.65,0,0,0,.27,1.38c.16.36.43.67.58,1a2.48,2.48,0,0,1-.14,2,5.71,5.71,0,0,1-1,1.55c-4.63,1.38-9.58.93-14.4,1.22-4.45.27-8.94,1.19-13.32.43-.5-2,.33-4.07,1-6,2.06-5.63,4.34-11.49,4-17.38a17.63,17.63,0,0,0-.24-2.05c-.72-4.18.07-8.5,1.32-12.55a21.52,21.52,0,0,0,.57-7.83,13.8,13.8,0,0,1,0-2.57,4.48,4.48,0,0,1,.93-2.4s0-.07.07-.1a.59.59,0,0,1,.37,0h0a.36.36,0,0,0,.25,0l.05,0a.14.14,0,0,1,.15,0c.11.07.18.31.42.36s.74.08,1.11.1a5.33,5.33,0,0,1,1.32.19h.06a4,4,0,0,0,1.93-.17,5,5,0,0,0,1.18-.46c.11-.11.79-.22.93-.31.46-.27.36-1.55.45-2.08a5.87,5.87,0,0,1,.37-1.54,2.61,2.61,0,0,1,2.13-1.23,11.38,11.38,0,0,1,2.54.22c1.86.27,3.75.22,5.57.65a4.19,4.19,0,0,0,2.75.12c.23,0,.26.25.26.5a3.14,3.14,0,0,1-.13.68c-.32,1.37.76,2.63,1.75,3.62a5.7,5.7,0,0,0,1.46,1.17c.5.23,1,.32,1.49.57a2.74,2.74,0,0,1,1,.91,3.8,3.8,0,0,1,.56,1.44,8.7,8.7,0,0,1-.16,2.88Z"/><path id="Path_170" data-name="Path 170" class="cls-12" d="M449.3,248.07a55.54,55.54,0,0,1-3,11.18,42.13,42.13,0,0,0-1.78,5c-.39,1.54-.31,3.18-.66,4.73-.44,1.92-.88,3.85-1.23,5.78l-.32.17a7.78,7.78,0,0,1-1.95.62,11.64,11.64,0,0,1-3.63-.12l-7.09-.94c-2.83-.39-5.84-.85-7.94-2.76a16.63,16.63,0,0,1-2.77-3.79,20.4,20.4,0,0,0-.23-2A27.1,27.1,0,0,1,420,253.37a21.57,21.57,0,0,0,.56-7.84,13.78,13.78,0,0,1,0-2.57,4.51,4.51,0,0,1,.93-2.4l.44-.1h0l.3,0h.15a2.14,2.14,0,0,1,.5.06,9.24,9.24,0,0,1,1,.39h.06a4,4,0,0,0,1.32.19c.66,0,1.33-.1,2-.15a3.63,3.63,0,0,1,2.35.42,13.5,13.5,0,0,1,1.31,1.2,5.89,5.89,0,0,0,1.65.9,17.58,17.58,0,0,0,13.22-.28,2.56,2.56,0,0,1,1.33-.34,2.59,2.59,0,0,1,.95.41l.89.5a3.82,3.82,0,0,1,.57,1.44A8.64,8.64,0,0,1,449.3,248.07Z"/><path id="Path_171" data-name="Path 171" class="cls-2" d="M453.63,244.78A26.94,26.94,0,0,1,448,242.3a2.56,2.56,0,0,0-1-.41,2.61,2.61,0,0,0-1.33.34,17.51,17.51,0,0,1-13.21.27,5.53,5.53,0,0,1-1.65-.9,16.64,16.64,0,0,0-1.31-1.2c-1.64-1.05-3.9.19-5.72-.5-.33-.14-.66-.27-1-.38-1.44-.36-2.91,1.08-4.33.64a24.3,24.3,0,0,0-1.17,4.43,48.11,48.11,0,0,0-.32,5.22c0,1.05-.05,2.1,0,3.15a1,1,0,0,1,1,1.08,1.08,1.08,0,0,1-.2.55,40.65,40.65,0,0,1-3.66,7.75,16.67,16.67,0,0,1,3.07,2.35c1.74,1.84,2.59,4.41,4.47,6.11,2.11,1.91,5.13,2.38,7.94,2.76l7.09.95a12.33,12.33,0,0,0,3.64.12,7.86,7.86,0,0,0,1.94-.63,3.41,3.41,0,0,0,1.08-.72,3.82,3.82,0,0,0,.64-1c.56-1.12,1.07-2.27,1.54-3.43.17-.41.41-.89.86-.93,2.63-2.37,5.12-4.8,7.75-7.18a17,17,0,0,0,2.82-3c1.31-1.93.12-4.66,0-7a8.84,8.84,0,0,0-.22-1.77C456.28,247.31,455.28,245.28,453.63,244.78Z"/><path id="Path_172" data-name="Path 172" class="cls-12" d="M411.47,234.84c-.4.8-1.35,1.18-2.08,1.68l-2.52,1.73a1.67,1.67,0,0,1-1.24.43,1.66,1.66,0,0,1-.93-.87v-.36a3.23,3.23,0,0,1,.16-1.19,3.7,3.7,0,0,1,1.11-1.43,9.11,9.11,0,0,1,3.26-2,1,1,0,0,1,.6-.06.85.85,0,0,1,.22.09,2.9,2.9,0,0,1,.45.65C410.69,233.93,411.68,234.44,411.47,234.84Z"/><path id="Path_173" data-name="Path 173" class="cls-2" d="M417.4,240.08a3.65,3.65,0,0,1-2.15-1.23l-1.88-1.75a2.35,2.35,0,0,1-.33-.37,2.61,2.61,0,0,1-.22-.61A7.06,7.06,0,0,0,411,233.5a1.23,1.23,0,0,0-.54-.39,1,1,0,0,0-.6.06,9,9,0,0,0-3.27,2,3.79,3.79,0,0,0-1.11,1.43,3.39,3.39,0,0,0-.16,1.19,9.22,9.22,0,0,0,.87,3.79c.08.18.18.37.28.55a17.08,17.08,0,0,0,2.33,3l1.18,1.32c1.16,1.3,2.32,2.6,3.59,3.8a4.83,4.83,0,0,0,1.6,1.12,1.78,1.78,0,0,0,1.85-.3,2.57,2.57,0,0,0,.53-.94,18.64,18.64,0,0,0,1.53-6.19,22,22,0,0,0-.11-2.57C418.89,240.48,418.25,240.13,417.4,240.08Z"/><path id="Path_174" data-name="Path 174" class="cls-13" d="M447.49,309.59a114.8,114.8,0,0,1-1.06,14.93c-.1.8-.21,1.6-.26,2.4-.17,2.32.1,4.65-.12,6.95-.11,1.25-.37,2.48-.59,3.7a65.79,65.79,0,0,0-.84,16.46c.68,9.15-1.42,18.3-.47,27.43a22,22,0,0,1-.29,5.31,22.24,22.24,0,0,1-.77,3.2q-1.08,3.73-2.18,7.45a2.6,2.6,0,0,1-.5,1,2.3,2.3,0,0,1-1.86.55c-2.87-.08-5.57-1.32-8.17-2.53a3,3,0,0,1-.82-.5c-.54-.56-.5-1.44-.73-2.18a20.75,20.75,0,0,0-1.25-2.2,7,7,0,0,1-.54-2.26c-.34-2.54-.56-5.09-.68-7.65-.19-3.6,2.2-6.92,3-10.43,1.49-6.89.23-14.28,2.88-20.82.83-2.06-.38-4.56-.5-6.79a21.91,21.91,0,0,0-.56-4.26c-.5-1.87-1.54-3.62-1.62-5.56a20.82,20.82,0,0,1,.63-4.15,18.76,18.76,0,0,0-.08-6.12c-.27-1.67-.67-3.33-1.07-5l-.09.18a56,56,0,0,0-3.11,7.32c-.4,1.22-.75,2.46-1.24,3.64-.41,1-.91,1.9-1.4,2.84a81.17,81.17,0,0,0-4.6,10.2c-.61,1.72-1.15,3.47-1.69,5.2l-3.67,11.92c-1,3.13-2.08,6.16-3.05,9.29-1.38,4.47-2.75,8.9-4.35,13.26-1.49,4.15-3.26,8.44-2.73,12.82a9.35,9.35,0,0,1-4.39.89,25.54,25.54,0,0,1-7.44-1.8,5.82,5.82,0,0,1-2.57-1.53c-1.1-1.35-.83-3.32-.5-5a11.35,11.35,0,0,1,.6-2.27c.37-.91,1-1.72,1.38-2.62a22.66,22.66,0,0,0,1.13-5.58c.31-1.88,1-3.87,2.6-4.89.28-3.31,1.64-6.57,2.39-9.8.56-2.45.75-5,1.2-7.45a16.28,16.28,0,0,1,2.66-7,11,11,0,0,1,1.35-6,4.36,4.36,0,0,0,.75-2.58,7.83,7.83,0,0,1,2.1-4.6c-.5-1.81.2-3.7.82-5.46a19,19,0,0,0,1-7,6,6,0,0,1,.09-2c.14-.5.41-.92.57-1.4a7.62,7.62,0,0,0,.23-1.78,20.52,20.52,0,0,1,2.48-7.62c.71-1.4.11-3.3.26-4.86.26-2.59.54-5.27,1.82-7.53.24-.43.5-.83.71-1.28a5.62,5.62,0,0,0,.42-2,7.4,7.4,0,0,0-.2-3.14c2.65-2.21,6.28-2.83,9.73-3s6.95.16,10.33-.57c1-.22,2-.53,3-.68a19.6,19.6,0,0,1,7.14.73,8.58,8.58,0,0,0,1,4.3,46,46,0,0,1,3.68,17.73Z"/><path id="Path_175" data-name="Path 175" class="cls-12" d="M435.8,310.72l-5.7,12.83c-.27-1.67-.67-3.33-1.07-5l-.09.18v-.27l3.11-6.83Z"/><path id="Path_176" data-name="Path 176" class="cls-12" d="M452.89,283.92a2.11,2.11,0,0,1-1.13.42,5.33,5.33,0,0,1-1.86-.25L445.43,283a1.9,1.9,0,0,1-.4-.14c.07-.78.22-1.68.64-2,.63-.42,2.52.15,3.23.25,1.24.17,2.49.36,3.69.6A9.89,9.89,0,0,1,452.89,283.92Z"/><path id="Path_177" data-name="Path 177" class="cls-2" d="M456.67,254.38c.09.41.23.82.31,1.23a9.64,9.64,0,0,1-.1,3.08l-.41,2.84-.41,2.85-1.57,11-.39,2.72-.54,3.8a2.78,2.78,0,0,1-.24.91,1.88,1.88,0,0,1-1.55.92,5.57,5.57,0,0,1-1.86-.25l-4.47-1.12a1.4,1.4,0,0,1-.55-.23,1.08,1.08,0,0,1-.28-1c.06-.38.22-.73.28-1.11.11-.74-.2-1.49-.09-2.22a6,6,0,0,1,.5-1.34c1.49-3.29.63-7.13,1.13-10.7a16.29,16.29,0,0,1,3.45-7.67,22,22,0,0,1,3.8-3.73,7.55,7.55,0,0,1,2.14-1.49C456.71,252.63,456.52,253.76,456.67,254.38Z"/><path id="Path_178" data-name="Path 178" class="cls-13" d="M422.85,211.61c-.32,1,.19,2.19-.05,3.25s-1.35,2-1.66,3.17c-.5,1.79,1,3.42,2.13,4.91,4.12,5.53,3.58,13.19,2.17,19.94a102.21,102.21,0,0,1-4.69,15.88,12.13,12.13,0,0,1-2.53,4.44c2.29-.66,4.71-1.32,7-.68,2.9.8,5.4,3.62,8.34,3,1.77-.39,3-2,4.6-2.83,3-1.6,6.57-.6,9.89-.08a3.87,3.87,0,0,0,2.16-.11,3.62,3.62,0,0,0,1.31-1.21,12.22,12.22,0,0,0,2.56-6.6,8.52,8.52,0,0,0-2.44-6.52,13.07,13.07,0,0,1-2.09-2,6.13,6.13,0,0,1-.82-3c-.39-5.46.94-11-.43-16.32a39.11,39.11,0,0,1-1.53-5.61c-.27-2.4.38-5-.57-7.16a7,7,0,0,0-4.19-3.61,22.56,22.56,0,0,0-5.58-1C433.71,209.23,424,208.06,422.85,211.61Z"/><g id="Group_11" data-name="Group 11" class="cls-14"><path id="Path_179" data-name="Path 179" d="M425.44,242.88a102.53,102.53,0,0,1-4.67,15.82,19.22,19.22,0,0,0,.9-2.1,101.6,101.6,0,0,0,4.7-15.89c1.42-6.75,2-14.4-2.16-19.94-1-1.32-2.27-2.75-2.22-4.3a5.27,5.27,0,0,0-.85,1.56c-.5,1.79,1,3.43,2.14,4.92C427.39,228.47,426.85,236.13,425.44,242.88Z"/><path id="Path_180" data-name="Path 180" d="M422.86,214.36a4.79,4.79,0,0,0,.88-1.67,8.6,8.6,0,0,0-.06-2.21,2.41,2.41,0,0,0-.83,1.13A10.13,10.13,0,0,0,422.86,214.36Z"/><path id="Path_181" data-name="Path 181" d="M452.46,259.09a3.63,3.63,0,0,1-1.32,1.2,3.87,3.87,0,0,1-2.16.11c-3.32-.5-7-1.52-9.89.08-1.59.86-2.83,2.43-4.6,2.83-2.93.66-5.43-2.16-8.33-3a11.72,11.72,0,0,0-6.29.5,8.48,8.48,0,0,1-1.65,2.37c2.29-.65,4.72-1.31,7-.68,2.9.8,5.4,3.62,8.35,3,1.76-.39,3-2,4.6-2.83,3-1.6,6.56-.6,9.89-.08a3.88,3.88,0,0,0,2.16-.1,3.62,3.62,0,0,0,1.31-1.21,13.41,13.41,0,0,0,2.05-3.93A15.15,15.15,0,0,1,452.46,259.09Z"/></g></g></g></svg>