<svg xmlns="http://www.w3.org/2000/svg" viewBox="0 0 579 399.64"><defs><style>.cls-1{opacity:0.6;}.cls-2{fill:#36334a;}.cls-12,.cls-13,.cls-3{fill:#fff;}.cls-11,.cls-3{opacity:0.2;}.cls-11,.cls-12,.cls-3,.cls-5,.cls-7{isolation:isolate;}.cls-4,.cls-5{fill:#ffef75;}.cls-12,.cls-5{opacity:0.3;}.cls-6{fill:#3e3e57;}.cls-7{opacity:0.1;}.cls-8{fill:none;stroke:#3e3e57;stroke-miterlimit:10;stroke-width:4px;}.cls-9{fill:#57b894;}.cls-10{fill:#656380;}.cls-14{fill:#fbbebe;}.cls-15{fill:#ffef7b;}.cls-16{fill:#ff6584;}.cls-17{fill:#1f1c01;}</style></defs><title>share_joke</title><g id="Layer_2" data-name="Layer 2"><g id="share_joke"><g id="Group_15" data-name="Group 15" class="cls-1"><path id="Path_249" data-name="Path 249" class="cls-2" d="M88.6,180.79l1.51-68.91a4.09,4.09,0,0,1,3.69-4,519.81,519.81,0,0,1,98.06,0,4.08,4.08,0,0,1,3.71,4v68.9a4.08,4.08,0,0,1-3.88,4.07c-33.78,1.59-66.88,1.66-99.21,0a4.06,4.06,0,0,1-3.88-4.13Z"/><path id="Path_250" data-name="Path 250" class="cls-2" d="M88.6,180.79l1.51-68.91a4.09,4.09,0,0,1,3.69-4,519.81,519.81,0,0,1,98.06,0,4.08,4.08,0,0,1,3.71,4v68.9a4.08,4.08,0,0,1-3.88,4.07c-33.78,1.59-66.88,1.66-99.21,0a4.06,4.06,0,0,1-3.88-4.13Z"/><path id="Path_251" data-name="Path 251" class="cls-3" d="M88.6,180.79l1.51-68.91a4.09,4.09,0,0,1,3.69-4,519.81,519.81,0,0,1,98.06,0,4.08,4.08,0,0,1,3.71,4v68.9a4.08,4.08,0,0,1-3.88,4.07c-33.78,1.59-66.88,1.66-99.21,0a4.06,4.06,0,0,1-3.88-4.13Z"/><rect id="Rectangle_78" data-name="Rectangle 78" class="cls-4" x="99.78" y="120.49" width="37.39" height="8.59" rx="2.25"/><path id="Rectangle_79" data-name="Rectangle 79" class="cls-5" d="M102.05,135.39H183.4a2,2,0,0,1,2,2h0a2,2,0,0,1-2,2H102.05a2,2,0,0,1-2-2h0A2,2,0,0,1,102.05,135.39Z"/><path id="Rectangle_80" data-name="Rectangle 80" class="cls-5" d="M102.05,146H183.4a2,2,0,0,1,2,2h0a2,2,0,0,1-2,2H102.05a2,2,0,0,1-2-2h0A2,2,0,0,1,102.05,146Z"/><path id="Rectangle_81" data-name="Rectangle 81" class="cls-5" d="M102.05,156.61H154.6a2,2,0,0,1,2,2h0a2,2,0,0,1-2,2H102.05a2,2,0,0,1-2-2h0A2,2,0,0,1,102.05,156.61Z"/></g><g id="Group_16" data-name="Group 16" class="cls-1"><path id="Path_252" data-name="Path 252" class="cls-2" d="M335.66,75.19l1.51-68.91a4.08,4.08,0,0,1,3.69-4,519.81,519.81,0,0,1,98.06,0,4.08,4.08,0,0,1,3.71,4v68.9a4.08,4.08,0,0,1-3.88,4c-33.78,1.59-66.88,1.66-99.21,0A4.07,4.07,0,0,1,335.66,75.19Z"/><path id="Path_253" data-name="Path 253" class="cls-2" d="M335.66,75.19l1.51-68.91a4.08,4.08,0,0,1,3.69-4,519.81,519.81,0,0,1,98.06,0,4.08,4.08,0,0,1,3.71,4v68.9a4.08,4.08,0,0,1-3.88,4c-33.78,1.59-66.88,1.66-99.21,0A4.07,4.07,0,0,1,335.66,75.19Z"/><path id="Path_254" data-name="Path 254" class="cls-3" d="M335.66,75.19l1.51-68.91a4.08,4.08,0,0,1,3.69-4,519.81,519.81,0,0,1,98.06,0,4.08,4.08,0,0,1,3.71,4v68.9a4.08,4.08,0,0,1-3.88,4c-33.78,1.59-66.88,1.66-99.21,0A4.07,4.07,0,0,1,335.66,75.19Z"/><rect id="Rectangle_82" data-name="Rectangle 82" class="cls-4" x="346.84" y="14.89" width="37.39" height="8.59" rx="2.25"/><path id="Rectangle_83" data-name="Rectangle 83" class="cls-5" d="M349.11,29.8h81.35a2,2,0,0,1,2,2h0a2,2,0,0,1-2,2H349.11a2,2,0,0,1-2-2h0A2,2,0,0,1,349.11,29.8Z"/><path id="Rectangle_84" data-name="Rectangle 84" class="cls-5" d="M349.11,40.41h81.35a2,2,0,0,1,2,2h0a2,2,0,0,1-2,2H349.11a2,2,0,0,1-2-2h0A2,2,0,0,1,349.11,40.41Z"/><path id="Rectangle_85" data-name="Rectangle 85" class="cls-5" d="M349.11,51h52.55a2,2,0,0,1,2,2h0a2,2,0,0,1-2,2H349.11a2,2,0,0,1-2-2h0A2,2,0,0,1,349.11,51Z"/></g><path id="Path_255" data-name="Path 255" class="cls-6" d="M579,347.34c0,4.8-3.58,9.44-10.27,13.85a94.62,94.62,0,0,1-18.93,9.06c-22.23,8.23-56,15.24-97.6,20.35-3.5.43-7.06.85-10.66,1.26-44.19,4.93-96.27,7.78-152,7.78C129.61,399.64,0,376.22,0,347.34s129.61-52.29,289.5-52.29S579,318.46,579,347.34Z"/><ellipse id="Ellipse_54" data-name="Ellipse 54" class="cls-7" cx="273.33" cy="362.24" rx="106.1" ry="21.22"/><path id="Path_256" data-name="Path 256" class="cls-7" d="M546.66,329.15c0,11.73-37.39,21.47-96,21.47s-106.1-9.5-106.1-21.22,47.49-21.22,106.1-21.22S546.66,317.43,546.66,329.15Z"/><path id="Path_257" data-name="Path 257" class="cls-7" d="M567.22,360.48a86.68,86.68,0,0,1-17.43,9.77c-22.23,8.23-56,15.24-97.6,20.35q-5.25.63-10.66,1.25c-10.53-3.3-16.63-7.22-16.63-11.42,0-11.72,47.49-21.22,106.1-21.22C543.72,359.21,555.92,359.66,567.22,360.48Z"/><rect id="Rectangle_86" data-name="Rectangle 86" class="cls-6" x="360.02" y="97" width="5.21" height="42.96" rx="2.29"/><path id="Rectangle_87" data-name="Rectangle 87" class="cls-6" d="M188.27,63.36h0a1.46,1.46,0,0,1,1.47,1.46V76a1.47,1.47,0,0,1-1.47,1.47h0A1.47,1.47,0,0,1,186.81,76V64.82A1.46,1.46,0,0,1,188.27,63.36Z"/><path id="Rectangle_88" data-name="Rectangle 88" class="cls-6" d="M188.35,89.24h0A1.65,1.65,0,0,1,190,90.89v21.32a1.65,1.65,0,0,1-1.65,1.65h0a1.64,1.64,0,0,1-1.64-1.65V90.89A1.64,1.64,0,0,1,188.35,89.24Z"/><path id="Rectangle_89" data-name="Rectangle 89" class="cls-6" d="M188.32,122.47h0a1.57,1.57,0,0,1,1.57,1.57v21.69a1.57,1.57,0,0,1-1.57,1.57h0a1.57,1.57,0,0,1-1.56-1.57V124A1.56,1.56,0,0,1,188.32,122.47Z"/><rect id="Rectangle_90" data-name="Rectangle 90" class="cls-6" x="188.47" y="16.62" width="174.36" height="354.36" rx="35.69"/><path id="Rectangle_91" data-name="Rectangle 91" class="cls-2" d="M261.3,27.2h19.4a2.47,2.47,0,0,1,2.47,2.47h0a2.47,2.47,0,0,1-2.47,2.48H261.3a2.47,2.47,0,0,1-2.47-2.48h0A2.47,2.47,0,0,1,261.3,27.2Z"/><circle id="Ellipse_55" data-name="Ellipse 55" class="cls-2" cx="289.66" cy="29.68" r="2.8"/><path id="Path_258" data-name="Path 258" class="cls-2" d="M352.06,39.7V347.89a13.85,13.85,0,0,1-13.85,13.85H213.09a13.85,13.85,0,0,1-13.85-13.85V39.7a13.85,13.85,0,0,1,13.85-13.85h18.72v2.4a11.39,11.39,0,0,0,11.4,11.4h63.66a11.39,11.39,0,0,0,11.4-11.4h0v-2.4h20A13.86,13.86,0,0,1,352.06,39.7Z"/><rect id="Rectangle_92" data-name="Rectangle 92" class="cls-6" x="203.61" y="55.31" width="15.66" height="2.02"/><rect id="Rectangle_93" data-name="Rectangle 93" class="cls-6" x="203.61" y="58.84" width="15.66" height="2.02"/><rect id="Rectangle_94" data-name="Rectangle 94" class="cls-6" x="203.61" y="62.38" width="15.66" height="2.02"/><rect id="Rectangle_95" data-name="Rectangle 95" class="cls-6" x="203.61" y="55.31" width="15.66" height="2.02"/><rect id="Rectangle_96" data-name="Rectangle 96" class="cls-6" x="203.61" y="58.84" width="15.66" height="2.02"/><rect id="Rectangle_97" data-name="Rectangle 97" class="cls-6" x="203.61" y="62.38" width="15.66" height="2.02"/><path id="Path_259" data-name="Path 259" class="cls-6" d="M344.9,60.37h-.46l-.18-.15a3.83,3.83,0,0,0,.9-2.47,3.76,3.76,0,1,0-3.74,3.78,3.93,3.93,0,0,0,2.47-.9l.17.14v.47l2.9,2.91.87-.88Zm-3.48,0A2.6,2.6,0,1,1,344,57.78a2.55,2.55,0,0,1-.76,1.82A2.61,2.61,0,0,1,341.42,60.37Z"/><path id="Path_260" data-name="Path 260" class="cls-8" d="M18,341.86c1.52-2.79-.2-6.2-2.17-8.68s-4.35-5.05-4.3-8.23c.08-4.55,4.9-7.23,8.76-9.64A42.72,42.72,0,0,0,28.13,309a11.64,11.64,0,0,0,2.42-3.24,13.18,13.18,0,0,0,.72-5.74q-.25-9.76-1-19.45"/><path id="Path_261" data-name="Path 261" class="cls-9" d="M37.64,280.21a7.06,7.06,0,0,0-3.54-5.81l-1.58,3.14,0-3.8a7.07,7.07,0,1,0,5.08,6.47Z"/><path id="Path_262" data-name="Path 262" class="cls-9" d="M25,328.2a7.08,7.08,0,1,1,.34-5.71l-4.43,3.6L25.77,325A7.12,7.12,0,0,1,25,328.2Z"/><path id="Path_263" data-name="Path 263" class="cls-9" d="M21.49,314.43a7.07,7.07,0,0,1-2.25-13.91l0,2.92,1.61-3.17h0A7.07,7.07,0,0,1,28.21,307v0a7.08,7.08,0,0,1-6.71,7.42Z"/><path id="Path_264" data-name="Path 264" class="cls-9" d="M38.71,303a7.07,7.07,0,1,1,3.14-13.27l-1.26,3.43,2.58-2.48A7.1,7.1,0,0,1,38.71,303Z"/><path id="Path_265" data-name="Path 265" class="cls-7" d="M36.69,282.1c-1.64.17-3.23.68-4.87.79a5.33,5.33,0,0,1-4.49-1.57A21,21,0,0,1,26,279a5,5,0,0,0-1.78-1.68A7.07,7.07,0,0,0,37,283.43a7,7,0,0,0,.5-1.39C37.23,282.05,37,282.07,36.69,282.1Z"/><path id="Path_266" data-name="Path 266" class="cls-7" d="M38.71,303A7.08,7.08,0,0,1,32,292.88a5.37,5.37,0,0,1,1.43,1.42,21.28,21.28,0,0,0,1.4,2.34,5.81,5.81,0,0,0,4.7,1.65c1.71-.08,3.36-.57,5-.72.24,0,.47,0,.72,0A7.1,7.1,0,0,1,38.71,303Z"/><path id="Path_267" data-name="Path 267" class="cls-7" d="M21.49,314.43a7.07,7.07,0,0,1-6.8-10,5.63,5.63,0,0,1,1.52,1.44,23.14,23.14,0,0,0,1.54,2.39,6.55,6.55,0,0,0,5,1.76c1.81-.05,3.45-.47,5.19-.6A7.06,7.06,0,0,1,21.49,314.43Z"/><path id="Path_268" data-name="Path 268" class="cls-7" d="M25,328.2a7.08,7.08,0,1,1-12.92-5.78h0a6.66,6.66,0,0,1,1.57,1.38,28.79,28.79,0,0,0,1.9,2.53,8.85,8.85,0,0,0,5.87,2.06A30.55,30.55,0,0,0,25,328.2Z"/><path id="Path_269" data-name="Path 269" class="cls-10" d="M7.29,338.65s5.6-.17,7.28-1.37,8.59-2.63,9-.71,8.41,9.6,2.1,9.63-14.69-1-16.37-2S7.29,338.65,7.29,338.65Z"/><path id="Path_270" data-name="Path 270" class="cls-11" d="M25.8,345.53c-6.32.05-14.68-1-16.36-2-1.28-.78-1.8-3.59-2-4.88H7.29s.35,4.52,2,5.56,10,2.06,16.37,2c1.82,0,2.45-.66,2.41-1.62C27.86,345.16,27.16,345.52,25.8,345.53Z"/><path id="Path_271" data-name="Path 271" class="cls-8" d="M132,316.42c-2.4-4.44.32-9.88,3.44-13.83s6.94-8.09,6.86-13.14c-.12-7.24-7.81-11.52-14-15.37A67.91,67.91,0,0,1,115.82,264a18.18,18.18,0,0,1-3.85-5.15c-1.27-2.83-1.24-6.06-1.16-9.16q.41-15.51,1.52-31"/><path id="Path_272" data-name="Path 272" class="cls-9" d="M100.67,218.16a11.25,11.25,0,0,1,5.64-9.25l2.52,5-.07-6.07a11.3,11.3,0,1,1-8.09,10.32Z"/><path id="Path_273" data-name="Path 273" class="cls-9" d="M120.82,294.65a11.29,11.29,0,1,0-.55-9.1l7.07,5.75-7.76-1.8A11.27,11.27,0,0,0,120.82,294.65Z"/><path id="Path_274" data-name="Path 274" class="cls-9" d="M126.4,272.7A11.3,11.3,0,0,0,130,250.53l.06,4.66-2.55-5.05h0a11.3,11.3,0,1,0-1.06,22.58h0Z"/><path id="Path_275" data-name="Path 275" class="cls-9" d="M99,254.45a11.3,11.3,0,1,0-5-21.14l2,5.47-4.11-3.95A11.3,11.3,0,0,0,99,254.45Z"/><path id="Path_276" data-name="Path 276" class="cls-7" d="M102.18,221.18c2.62.28,5.15,1.1,7.77,1.25s5.49-.46,7.14-2.5a37,37,0,0,0,2.1-3.67,8.1,8.1,0,0,1,2.84-2.68,11.3,11.3,0,1,1-20.16,10.21,10.94,10.94,0,0,1-1-2.71C101.34,221.1,101.76,221.13,102.18,221.18Z"/><path id="Path_277" data-name="Path 277" class="cls-7" d="M99,254.45a11.32,11.32,0,0,0,10.75-16.12,8.39,8.39,0,0,0-2.28,2.28,37.88,37.88,0,0,1-2.23,3.73c-1.76,2.07-4.77,2.75-7.5,2.62s-5.36-.9-8.09-1.14c-.38,0-.76-.06-1.14-.07A11.29,11.29,0,0,0,99,254.45Z"/><path id="Path_278" data-name="Path 278" class="cls-7" d="M126.4,272.71a11.29,11.29,0,0,0,10.84-15.91,9,9,0,0,0-2.39,2.3,39,39,0,0,1-2.45,3.8c-1.9,2.13-5.11,2.87-8,2.8s-5.5-.74-8.28-1A11.29,11.29,0,0,0,126.4,272.71Z"/><path id="Path_279" data-name="Path 279" class="cls-7" d="M120.82,294.65a11.3,11.3,0,0,0,20.6-9.22,11.11,11.11,0,0,0-2.48,2.21,47.34,47.34,0,0,1-3,4c-2.31,2.27-6,3.2-9.36,3.3a50,50,0,0,1-5.74-.3Z"/><path id="Path_280" data-name="Path 280" class="cls-10" d="M149,311.3s-8.92-.27-11.62-2.18S123.7,304.92,123,308s-13.4,15.27-3.29,15.35,23.4-1.56,26.08-3.2S149,311.3,149,311.3Z"/><path id="Path_281" data-name="Path 281" class="cls-11" d="M119.54,322.27c10.07.08,23.4-1.57,26.08-3.2,2-1.24,2.85-5.71,3.13-7.77h.3s-.57,7.19-3.25,8.82-16,3.29-26.08,3.2c-2.91,0-3.91-1.05-3.86-2.58C116.26,321.67,117.37,322.25,119.54,322.27Z"/><path id="Path_282" data-name="Path 282" class="cls-12" d="M352.06,207.54V347.9a13.85,13.85,0,0,1-13.85,13.84H213.09a13.84,13.84,0,0,1-13.85-13.84V207.82A601.72,601.72,0,0,0,352.06,207.54Z"/><circle id="Ellipse_56" data-name="Ellipse 56" class="cls-5" cx="260.19" cy="178.84" r="2.02"/><circle id="Ellipse_57" data-name="Ellipse 57" class="cls-4" cx="269.29" cy="178.84" r="2.02"/><circle id="Ellipse_58" data-name="Ellipse 58" class="cls-5" cx="278.38" cy="178.84" r="2.02"/><circle id="Ellipse_59" data-name="Ellipse 59" class="cls-5" cx="287.47" cy="178.84" r="2.02"/><path id="Path_283" data-name="Path 283" class="cls-12" d="M222.49,153.5,224,84.59a4.07,4.07,0,0,1,3.69-4,519.7,519.7,0,0,1,98.05,0,4.07,4.07,0,0,1,3.71,4v68.9a4.07,4.07,0,0,1-3.87,4.07c-33.78,1.58-66.88,1.66-99.22,0A4.08,4.08,0,0,1,222.49,153.5Z"/><path id="Path_284" data-name="Path 284" class="cls-12" d="M352.06,81.5v78.13q-5.44-.47-10.84-1a4,4,0,0,1-3.67-4.33l4.8-68.76a4.07,4.07,0,0,1,3.88-3.78Z"/><path id="Path_285" data-name="Path 285" class="cls-12" d="M199.28,81.5v78.13q5.44-.47,10.84-1a4.05,4.05,0,0,0,3.67-4.33L209,85.53a4.08,4.08,0,0,0-3.88-3.78Z"/><rect id="Rectangle_98" data-name="Rectangle 98" class="cls-4" x="233.67" y="93.21" width="37.39" height="8.59" rx="2.25"/><path id="Rectangle_99" data-name="Rectangle 99" class="cls-5" d="M235.94,108.11h81.34a2,2,0,0,1,2,2h0a2,2,0,0,1-2,2H235.94a2,2,0,0,1-2-2h0A2,2,0,0,1,235.94,108.11Z"/><path id="Rectangle_100" data-name="Rectangle 100" class="cls-5" d="M235.94,118.72h81.34a2,2,0,0,1,2,2h0a2,2,0,0,1-2,2H235.94a2,2,0,0,1-2-2h0A2,2,0,0,1,235.94,118.72Z"/><path id="Rectangle_101" data-name="Rectangle 101" class="cls-5" d="M235.94,129.33h52.54a2,2,0,0,1,2,2h0a2,2,0,0,1-2,2H235.94a2,2,0,0,1-2-2h0A2,2,0,0,1,235.94,129.33Z"/><path id="Path_286" data-name="Path 286" class="cls-13" d="M238.54,267.52a9.61,9.61,0,0,1-2.74.75,4.79,4.79,0,0,0,2.1-2.64,9.38,9.38,0,0,1-3,1.16,4.77,4.77,0,0,0-8.12,4.34,13.52,13.52,0,0,1-9.83-5,4.78,4.78,0,0,0,1.49,6.37,4.71,4.71,0,0,1-2.17-.6V272a4.77,4.77,0,0,0,3.83,4.68,5.31,5.31,0,0,1-1.26.17,3.94,3.94,0,0,1-.9-.1,4.79,4.79,0,0,0,4.46,3.32,9.55,9.55,0,0,1-5.92,2,10.9,10.9,0,0,1-1.14-.07,13.51,13.51,0,0,0,20.88-11.21V270a9.73,9.73,0,0,0,2.36-2.47Z"/><path id="Path_287" data-name="Path 287" class="cls-13" d="M286.3,265.3H269.48a1,1,0,0,0-1.05,1v16.84a1,1,0,0,0,1.05,1.05h8.4v-7.5h-2.26V274h2.26v-2a3.59,3.59,0,0,1,3.39-3.78,2.57,2.57,0,0,1,.48,0c1.05,0,2.17.08,2.43.11v2.52h-1.74c-1.18,0-1.41.56-1.41,1.39V274h2.82l-.36,2.76H281v7.47h5.26a1,1,0,0,0,1-1.05v-16.8A1,1,0,0,0,286.3,265.3Z"/><path id="Path_288" data-name="Path 288" class="cls-13" d="M330.52,266.82a4,4,0,0,1,3.94,3.94v7.87a4,4,0,0,1-3.94,3.94h-7.88a4,4,0,0,1-3.94-3.94v-7.88a4,4,0,0,1,3.94-3.94h7.88m0-1.57h-7.88a5.51,5.51,0,0,0-5.51,5.51v7.88a5.52,5.52,0,0,0,5.51,5.52h7.88a5.53,5.53,0,0,0,5.51-5.51v-7.89a5.52,5.52,0,0,0-5.51-5.5Z"/><path id="Path_289" data-name="Path 289" class="cls-13" d="M331.7,270.76a1.2,1.2,0,1,1,.83-.35A1.18,1.18,0,0,1,331.7,270.76Zm-5.12.8a3.15,3.15,0,1,1-3.15,3.15,3.15,3.15,0,0,1,3.15-3.15h0m0-1.58a2,2,0,1,0,1.95-2,2,2,0,0,0-1.95,2Z"/><circle id="Ellipse_60" data-name="Ellipse 60" class="cls-6" cx="383.7" cy="208.92" r="9.38"/><ellipse id="Ellipse_61" data-name="Ellipse 61" class="cls-6" cx="406.59" cy="229.75" rx="26.32" ry="34.1"/><path id="Path_290" data-name="Path 290" class="cls-7" d="M406.59,253.56c-13.18,0-24.11-12.56-26-28.95a44.17,44.17,0,0,0-.3,5.14c0,18.84,11.78,34.1,26.32,34.1s26.32-15.26,26.32-34.1a44,44,0,0,0-.3-5.14C430.7,241,419.78,253.56,406.59,253.56Z"/><path id="Path_291" data-name="Path 291" class="cls-6" d="M460.15,329.63c-.56,2.32-3,4.18-5.7,5.48-5.67,2.74-12.67,3.54-19.46,3.83a34.73,34.73,0,0,1-5.2-.1,15.06,15.06,0,0,1-8.91-4.1,1.23,1.23,0,0,1-.36-1.7,1.18,1.18,0,0,1,.4-.37c3.61-4,9.64-6.4,15.72-8.16,4.61-1.33,12.63-4.77,17.68-4.31C459.17,320.66,460.87,326.69,460.15,329.63Z"/><path id="Path_292" data-name="Path 292" class="cls-7" d="M460.15,329.63c-.56,2.32-3,4.18-5.7,5.48-5.67,2.74-12.67,3.54-19.46,3.83a34.73,34.73,0,0,1-5.2-.1,15.06,15.06,0,0,1-8.91-4.1,1.23,1.23,0,0,1-.36-1.7,1.18,1.18,0,0,1,.4-.37c3.61-4,9.64-6.4,15.72-8.16,4.61-1.33,12.63-4.77,17.68-4.31C459.17,320.66,460.87,326.69,460.15,329.63Z"/><path id="Path_293" data-name="Path 293" class="cls-6" d="M388,312.27a14.31,14.31,0,0,0-.87,11,19.11,19.11,0,0,0,6.42,9.1c7.34,5.88,17.44,6.69,26.86,6.61a207.29,207.29,0,0,0,24.64-1.7,29.38,29.38,0,0,0,8-1.86,12.28,12.28,0,0,0,6.86-6.92,8.41,8.41,0,0,0-2.28-9.15c-2.28-1.86-5.43-2.11-8.36-2.29l-16.82-1c1.66-1.68,3.87-2.63,5.89-3.85,2.68-1.62,4.46-4.34,6.41-6.79a94.73,94.73,0,0,1,9.78-10.05c.56,3.13,2.53,5.71,4.87,7.87s5,3.91,7.45,6c5.88,5,10.1,11.76,16.29,16.36a31.87,31.87,0,0,0,11.67-5.82l-2.4-4.35a2.85,2.85,0,0,0-.9-1.13c-.68-.42-1.56-.2-2.35-.33-2.1-.31-3-2.75-3.85-4.72-2.28-5.4-6.63-9.6-10.34-14.11a70.07,70.07,0,0,1-7.27-10.71,38.77,38.77,0,0,0-4.09-6.57,9.16,9.16,0,0,0-6.65-3.47c-2.28,0-4.38,1.15-6.34,2.31a168.94,168.94,0,0,0-17.19,11.71c-2.86,2.23-5.71,4.58-9.09,6-1.41.57-2.91,1-4.27,1.67-2.38,1.22-4.19,3.29-6.13,5.13A40.61,40.61,0,0,1,388,312.27Z"/><path id="Path_294" data-name="Path 294" class="cls-14" d="M423.12,265.55a17.53,17.53,0,0,1-1.27,5.85,7.25,7.25,0,0,1-4.19,4,9,9,0,0,1-4.09.13,8,8,0,0,1-3.34-1.13,7.13,7.13,0,0,1-2.64-4.91c-.28-1.87-.16-3.82-.34-5.72a30.59,30.59,0,0,0-.88-4.54c-.12-.51-.24-1-.37-1.49s-.24-1-.35-1.48-.2-.93-.27-1.4-.13-.79-.18-1.19a13.42,13.42,0,0,0-.58-3.5,11.16,11.16,0,0,0-1.23-2.08c-.21-.3-.41-.59-.6-.9a4.23,4.23,0,0,1-.71-2.72,3.15,3.15,0,0,1,.11-.44.33.33,0,0,1,.07-.16,1.33,1.33,0,0,0,.89-.84,2.46,2.46,0,0,0-.11-1.29,8.35,8.35,0,0,0-.7-1.66c-.19-.35-.85-1-.85-1.37,0-.8,1.56-1.45,2.19-1.77a12.3,12.3,0,0,1,6.25-1.28,4.56,4.56,0,0,1,3.66,1.68c.68,1,.6,2.4.88,3.61a1.17,1.17,0,0,0,.22.51,1.08,1.08,0,0,0,.54.25,3.79,3.79,0,0,0,1,0h0l.27,0a3.69,3.69,0,0,0,1.48-.64,8,8,0,0,1,.85-.19h0c1.15,3.62,1.3,7.5,2.24,11.18a29.18,29.18,0,0,1,1.23,5.54v.25c0,.6,0,1.22,0,1.82a5.58,5.58,0,0,0,.09.81,11.38,11.38,0,0,0,.38,1.26h0a3,3,0,0,1,.12.4c0,.1.05.2.07.3h0a11,11,0,0,1,.11,3.08Z"/><circle id="Ellipse_62" data-name="Ellipse 62" class="cls-14" cx="407.05" cy="228.38" r="13.51"/><path id="Path_295" data-name="Path 295" class="cls-14" d="M492.79,302A22.1,22.1,0,0,0,489,291.7c.33,2.08.69,4.17,1,6.25a2.33,2.33,0,0,1-2.45-.76,7.52,7.52,0,0,1-1.28-2.38,49,49,0,0,0-6-10.72c-8.58-.71-17.09-4.28-24.65-8.43s-14.65-9.13-22.1-13.46a32.66,32.66,0,0,0-4-2.06c-2.34-.93-5-1.42-7.17-2.52l-.45-.24a8.93,8.93,0,0,1-1.41-.95,6.67,6.67,0,0,1-.68-.62,14.88,14.88,0,0,1-2.59-4.33c-1.19-2.62-1.61-5.8-2.8-8.42a8.24,8.24,0,0,1,1.82-1.29h0l.29-.14a7.66,7.66,0,0,1,1.46-.51,8.23,8.23,0,0,1,.86-.19h0a8.36,8.36,0,0,1,4,.32,18.86,18.86,0,0,1,5.05,3.1,78.72,78.72,0,0,1,7.38,5.86c1.3,1.25,2.5,2.62,3.9,3.76a30.87,30.87,0,0,0,3.68,2.44L465.68,270c2.57,1.52,5.14,3.07,7.66,4.69,3.81,2.46,7.5,5.13,11.17,7.8l6.5,4.71a7.13,7.13,0,0,1,1.85,1.7,6,6,0,0,1,.81,2.5,22.83,22.83,0,0,1-.88,10.6Z"/><path id="Path_296" data-name="Path 296" class="cls-15" d="M426.46,275.71c-.91,4.08-5,6.56-7.2,10.14-2.68,4.46-1.59,9.64-.58,14.73l-5.52,4.76a38.42,38.42,0,0,1-3.13,2.53,39.74,39.74,0,0,1-5,2.86l-4.89,2.53a23.09,23.09,0,0,1-4.78,2c-3.22.83-6.63.25-9.8-.71a4,4,0,0,1-1.07-.43,1.87,1.87,0,0,1-.51-.46,2.83,2.83,0,0,1-.32-1.85,87,87,0,0,1,2.93-15.77,46.65,46.65,0,0,1,6.74-16.54,50.2,50.2,0,0,1,5.79-8.38,13.58,13.58,0,0,0,2.67-3.45c.81-1.86.51-4,.66-6a12.52,12.52,0,0,1,1.19-4.37h0a12.1,12.1,0,0,1,1.27-2.1l.66,1.55.44,1,.56,1.3c.5,1.24,1.06,2.48,1.6,3.72a16.25,16.25,0,0,0,2.42,4.32,4.73,4.73,0,0,0,8.1-.62,15.94,15.94,0,0,0,1.65-4.37,14,14,0,0,0,.18-5.7c-.55-3.65-2.1-7.37-3.23-10.75a11.08,11.08,0,0,1-.78-3.54,2.85,2.85,0,0,1,0-.41v-.11a8.39,8.39,0,0,1,1.46-.5,8.23,8.23,0,0,1,.86-.19q1.47,8,3,16.07a1.69,1.69,0,0,0,.07.38c.14.77.28,1.51.44,2.3s.3,1.39.48,2.08h0l.18.69h0c.18.63.37,1.26.59,1.87C425,268.09,427.32,271.84,426.46,275.71Z"/><path id="Path_297" data-name="Path 297" class="cls-16" d="M481.27,333.12a4.74,4.74,0,0,0,.44,2.29c.85,1.55,2.87,1.9,4.63,2a136.85,136.85,0,0,0,30.74-.94,3.5,3.5,0,0,0,1.57-.5c1.45-1,.55-3.49-1-4.28s-3.46-.6-5.19-.95a16.17,16.17,0,0,1-4.86-2.1q-5.28-3-10.4-6.32c-2-1.31-4.43-2.7-6.72-1.92C484.25,322.55,481.23,326.43,481.27,333.12Z"/><path id="Path_298" data-name="Path 298" class="cls-14" d="M405.7,256h0a1.6,1.6,0,0,1-.05.29l-.09.47c-.28,1.45-.63,2.9-1,4.33-1.1,4-2.57,7.88-4,11.73q-5.86,15.48-11.76,31c-1,2.6-2,5.2-3.1,7.75l-1.17,2.57a35.69,35.69,0,0,0-3.15,9.6,20.13,20.13,0,0,0-.14,6.57,6.73,6.73,0,0,0,3.8,5.05c1,.39,2.44.91,2.16,1.95-.14.58-.8.86-1.38.95a5.31,5.31,0,0,1-4.34-1.24c-1.1-1-1.94-2.49-3.4-2.66a6,6,0,0,0-2.86.92c-3.77,1.73-8.17.51-12.13-.7a4.25,4.25,0,0,1,3.54-3,28.53,28.53,0,0,1,4.89-.14,2.7,2.7,0,0,0,1.49-.38,2.85,2.85,0,0,0,.8-1.37,58.35,58.35,0,0,0,2.34-9.57c.5-3.4.74-6.84,1.51-10.19.59-2.62,1.49-5.15,2.26-7.72a160,160,0,0,0,3.68-16.05,58.18,58.18,0,0,0,1-6.82c.13-1.9.06-3.81.25-5.7a44.1,44.1,0,0,1,1.52-7.27l2.1-7.78c1-3.83,2.15-7.81,4.78-10.8a10.13,10.13,0,0,1,7.29-3.48,7.36,7.36,0,0,1,1.55.17l.25.07a5.92,5.92,0,0,1,1.58.65c.82-.51,1.23-.34,1.77.46a5.11,5.11,0,0,1,.64,2.76A38.63,38.63,0,0,1,405.7,256Z"/><path id="Path_299" data-name="Path 299" class="cls-15" d="M406.59,259.05l0,0-.19.18-1.84,1.84-.9-3.79-3.09-13a6.75,6.75,0,0,1,1.55.16,2.36,2.36,0,0,1,.11-.44l.15.51,1,3.53,2,6.77.33,1.12h0Z"/><path id="Rectangle_102" data-name="Rectangle 102" class="cls-6" d="M398.12,208.47h11a9.16,9.16,0,0,1,9.16,9.15h0a9.16,9.16,0,0,1-9.16,9.16h-11a9.15,9.15,0,0,1-9.15-9.16h0A9.15,9.15,0,0,1,398.12,208.47Z"/><circle id="Ellipse_63" data-name="Ellipse 63" class="cls-6" cx="428.57" cy="208.92" r="9.38"/><path id="Path_300" data-name="Path 300" class="cls-7" d="M428.33,199.54H428a9.38,9.38,0,0,1,0,18.75h.34a9.39,9.39,0,0,0,.39-18.77h-.39Z"/><path id="Path_301" data-name="Path 301" class="cls-7" d="M383.7,199.54h.35a9.38,9.38,0,0,0,0,18.75h-.35a9.39,9.39,0,0,1,0-18.77Z"/><path id="Path_302" data-name="Path 302" class="cls-7" d="M415.52,225h-23.8A2.75,2.75,0,0,1,389,222.2V224a2.75,2.75,0,0,0,2.74,2.75h23.8a2.75,2.75,0,0,0,2.75-2.75V222.2A2.75,2.75,0,0,1,415.52,225Z"/><path id="Path_303" data-name="Path 303" class="cls-17" d="M441.76,370.25l1.51-68.91a4.09,4.09,0,0,1,3.69-4,521.49,521.49,0,0,1,98.06,0,4.08,4.08,0,0,1,3.71,4.05v68.9a4.08,4.08,0,0,1-3.88,4c-33.78,1.58-66.88,1.66-99.21,0A4.08,4.08,0,0,1,441.76,370.25Z"/><rect id="Rectangle_103" data-name="Rectangle 103" class="cls-4" x="452.94" y="309.95" width="37.39" height="8.59" rx="2.25"/><path id="Rectangle_104" data-name="Rectangle 104" class="cls-5" d="M455.21,324.86h81.35a2,2,0,0,1,2,2h0a2,2,0,0,1-2,2H455.21a2,2,0,0,1-2-2h0A2,2,0,0,1,455.21,324.86Z"/><path id="Rectangle_105" data-name="Rectangle 105" class="cls-5" d="M455.21,335.47h81.35a2,2,0,0,1,2,2h0a2,2,0,0,1-2,2H455.21a2,2,0,0,1-2-2h0A2,2,0,0,1,455.21,335.47Z"/><path id="Rectangle_106" data-name="Rectangle 106" class="cls-5" d="M455.21,346.08h52.55a2,2,0,0,1,2,2h0a2,2,0,0,1-2,2H455.21a2,2,0,0,1-2-2h0A2,2,0,0,1,455.21,346.08Z"/><path id="Path_304" data-name="Path 304" class="cls-14" d="M485.5,292.94s2.37,6.82,4.54,5L488.32,289Z"/></g></g></svg>