<svg xmlns="http://www.w3.org/2000/svg" viewBox="0 0 72.63 72.63"><defs><style>.cls-1{fill:#272b77;}</style></defs><title>twitter</title><g id="Layer_2" data-name="Layer 2"><g id="icons"><path id="twitter" class="cls-1" d="M56.9,25.78a23.6,23.6,0,0,0,5.35-5.52,21.3,21.3,0,0,1-6.16,1.62,10.86,10.86,0,0,0,4.7-5.83A20,20,0,0,1,54,18.64a9.85,9.85,0,0,0-7.62-3.4,10.28,10.28,0,0,0-8.26,3.89A10.31,10.31,0,0,0,36,28.37,29.82,29.82,0,0,1,13.94,17.18a10.24,10.24,0,0,0-1.46,5.35,9.41,9.41,0,0,0,.65,3.33A12.51,12.51,0,0,0,14.91,29a13,13,0,0,0,2.44,2.43A11.21,11.21,0,0,1,12.48,30v.16A10.3,10.3,0,0,0,14.91,37a10.81,10.81,0,0,0,6.16,3.73,14.5,14.5,0,0,1-4.86.16,9.92,9.92,0,0,0,3.73,5.27,10.16,10.16,0,0,0,6.16,2A20.88,20.88,0,0,1,13,52.69a18,18,0,0,1-2.59-.17,29.28,29.28,0,0,0,16.37,4.87,29.08,29.08,0,0,0,16.37-4.7A29.15,29.15,0,0,0,53.58,41.18,31.87,31.87,0,0,0,56.9,27.07ZM64.84,0a7.53,7.53,0,0,1,5.52,2.27,7.5,7.5,0,0,1,2.26,5.51V64.84a7.72,7.72,0,0,1-7.78,7.78H7.78a7.5,7.5,0,0,1-5.51-2.26A7.53,7.53,0,0,1,0,64.84V7.78A7.51,7.51,0,0,1,2.27,2.27,7.51,7.51,0,0,1,7.78,0Z"/></g></g></svg>